<svg width="48" height="48" viewBox="0 0 48 48" fill="none" xmlns="http://www.w3.org/2000/svg">
<rect width="48" height="48" rx="24" fill="#607D8A"/>
<path fill-rule="evenodd" clip-rule="evenodd" d="M19.67 13.999H28.34C31.73 13.999 34 16.379 34 19.919V28.09C34 31.62 31.73 33.999 28.34 33.999H19.67C16.28 33.999 14 31.62 14 28.09V19.919C14 16.379 16.28 13.999 19.67 13.999ZM23.99 21.06C23.52 21.06 23.13 20.669 23.13 20.19C23.13 19.7 23.52 19.31 24.01 19.31C24.49 19.31 24.88 19.7 24.88 20.19C24.88 20.669 24.49 21.06 23.99 21.06ZM24.87 27.78C24.87 28.26 24.48 28.65 23.99 28.65C23.51 28.65 23.12 28.26 23.12 27.78V23.36C23.12 22.879 23.51 22.48 23.99 22.48C24.48 22.48 24.87 22.879 24.87 23.36V27.78Z" fill="white"/>
</svg>
