<svg width="100" height="100" viewBox="0 0 100 100" fill="none" xmlns="http://www.w3.org/2000/svg">
<rect width="100" height="100" rx="50" fill="url(#paint0_linear_1352_18002)"/>
<path fill-rule="evenodd" clip-rule="evenodd" d="M24.2411 49.4935C24.2411 35.0469 35.9766 23.3335 50.4544 23.3335C64.9282 23.3335 76.6677 35.0469 76.6677 49.4935C76.6677 63.9421 64.9302 75.6555 50.4544 75.6555C47.2994 75.6596 44.1749 75.0933 41.2311 73.9892C40.1021 73.5658 38.8681 73.4575 37.7111 73.797L28.5098 76.4968C25.3864 77.4166 22.5171 74.448 23.5475 71.3646L26.312 63.0882C26.7316 61.832 26.6141 60.4691 26.1198 59.2403C24.9073 56.2266 24.2411 52.9367 24.2411 49.4935ZM55.6011 39.434C56.4281 39.434 57.2538 39.5504 58.0389 39.8133C62.8765 41.3832 64.6197 46.6813 63.1636 51.3123C62.3379 53.6788 60.9879 55.8386 59.2198 57.6034C56.689 60.0497 53.9117 62.2213 50.9221 64.092L50.5944 64.2895L50.2537 64.0789C47.2536 62.2213 44.4606 60.0497 41.9061 57.5903C40.1499 55.8256 38.7986 53.6788 37.9598 51.3123C36.4787 46.6813 38.2219 41.3832 43.1119 39.7859C43.492 39.655 43.8839 39.5635 44.2771 39.5125H44.4344C44.8027 39.4588 45.1683 39.434 45.5353 39.434H45.6795C46.5052 39.4588 47.3047 39.6027 48.0793 39.8657H48.1566C48.209 39.8905 48.2484 39.918 48.2746 39.9429C48.5642 40.0357 48.8382 40.1404 49.1003 40.2843L49.5983 40.5067C49.7187 40.5707 49.8538 40.6686 49.9705 40.7532C50.0445 40.8068 50.1111 40.8551 50.1619 40.8861C50.1833 40.8986 50.205 40.9113 50.227 40.9241C50.3393 40.9896 50.4564 41.0578 50.5551 41.1333C52.0112 40.0226 53.7793 39.4209 55.6011 39.434Z" fill="white"/>
<defs>
<linearGradient id="paint0_linear_1352_18002" x1="100" y1="100" x2="-18.991" y2="65.4996" gradientUnits="userSpaceOnUse">
<stop stop-color="#9610FF"/>
<stop offset="1" stop-color="#AF48FF"/>
</linearGradient>
</defs>
</svg>