<svg width="21" height="25" viewBox="0 0 21 25" fill="none" xmlns="http://www.w3.org/2000/svg">
<path d="M15.2729 0.762011C15.2219 0.705011 13.3844 0.784511 11.7854 2.52001C10.1864 4.25401 10.4324 6.24301 10.4684 6.29401C10.5044 6.34501 12.7484 6.42451 14.1809 4.40701C15.6134 2.38951 15.3239 0.820511 15.2729 0.762011ZM20.2439 18.3615C20.1719 18.2175 16.7564 16.5105 17.0744 13.2285C17.3924 9.94501 19.5869 9.04501 19.6214 8.94751C19.6559 8.85001 18.7259 7.76251 17.7404 7.21201C17.0168 6.82389 16.216 6.60152 15.3959 6.56101C15.2339 6.55651 14.6714 6.41851 13.5149 6.73501C12.7529 6.94351 11.0354 7.61851 10.5629 7.64551C10.0889 7.67251 8.67889 6.86251 7.16239 6.64801C6.19189 6.46051 5.16289 6.84451 4.42639 7.14001C3.69139 7.43401 2.29339 8.27101 1.31539 10.4955C0.337389 12.7185 0.848889 16.2405 1.21489 17.3355C1.58089 18.429 2.15239 20.2215 3.12439 21.5295C3.98839 23.0055 5.13439 24.03 5.61289 24.378C6.09139 24.726 7.44139 24.957 8.37739 24.4785C9.13039 24.0165 10.4894 23.751 11.0264 23.7705C11.5619 23.79 12.6179 24.0015 13.6994 24.579C14.5559 24.8745 15.3659 24.7515 16.1774 24.4215C16.9889 24.09 18.1634 22.833 19.5344 20.2845C20.0549 19.0995 20.2919 18.459 20.2439 18.3615Z" fill="white"/>
</svg>
