<svg width="80" height="80" viewBox="0 0 80 80" fill="none" xmlns="http://www.w3.org/2000/svg">
<rect width="80" height="80" rx="40" fill="#9610FF" fill-opacity="0.08"/>
<path fill-rule="evenodd" clip-rule="evenodd" d="M45.1327 27.3342C45.974 27.3342 46.814 27.4529 47.6127 27.7209C52.534 29.3209 54.3074 34.7209 52.826 39.4409C51.986 41.8529 50.6127 44.0542 48.814 45.8529C46.2394 48.3462 43.414 50.5595 40.3727 52.4662L40.0394 52.6675L39.6927 52.4529C36.6407 50.5595 33.7994 48.3462 31.2007 45.8395C29.414 44.0409 28.0394 41.8529 27.186 39.4409C25.6794 34.7209 27.4527 29.3209 32.4274 27.6929C32.814 27.5595 33.2127 27.4662 33.6127 27.4142H33.7727C34.1474 27.3595 34.5194 27.3342 34.8927 27.3342H35.0394C35.8794 27.3595 36.6927 27.5062 37.4807 27.7742H37.5594C37.6127 27.7995 37.6527 27.8275 37.6794 27.8529C37.974 27.9475 38.2527 28.0542 38.5194 28.2009L39.026 28.4275C39.1485 28.4928 39.2859 28.5926 39.4047 28.6788C39.4799 28.7335 39.5477 28.7827 39.5994 28.8142C39.6211 28.827 39.6432 28.8399 39.6655 28.853C39.7799 28.9197 39.899 28.9892 39.9994 29.0662C41.4807 27.9342 43.2794 27.3209 45.1327 27.3342ZM48.6794 36.9342C49.226 36.9195 49.6927 36.4809 49.7327 35.9195V35.7609C49.7727 33.8929 48.6407 32.2009 46.9194 31.5475C46.3727 31.3595 45.7727 31.6542 45.5727 32.2142C45.386 32.7742 45.6794 33.3875 46.2394 33.5862C47.094 33.9062 47.666 34.7475 47.666 35.6795V35.7209C47.6407 36.0262 47.7327 36.3209 47.9194 36.5475C48.106 36.7742 48.386 36.9062 48.6794 36.9342Z" fill="url(#paint0_linear_1338_16777)"/>
<defs>
<linearGradient id="paint0_linear_1338_16777" x1="53.333" y1="52.6675" x2="21.8653" y2="43.0636" gradientUnits="userSpaceOnUse">
<stop stop-color="#9610FF"/>
<stop offset="1" stop-color="#AF48FF"/>
</linearGradient>
</defs>
</svg>