<svg width="60" height="60" viewBox="0 0 60 60" fill="none" xmlns="http://www.w3.org/2000/svg">
<rect width="60" height="60" rx="30" fill="#584CF4" fill-opacity="0.08"/>
<path fill-rule="evenodd" clip-rule="evenodd" d="M35.146 19.2301L35.1472 20.1046C38.3609 20.3565 40.4839 22.5464 40.4873 25.9047L40.5 35.7348C40.5046 39.3963 38.2043 41.6492 34.5171 41.655L25.5105 41.6667C21.8464 41.6713 19.5173 39.3648 19.5127 35.6928L19.5 25.9782C19.4954 22.5977 21.5434 20.4136 24.7572 20.1186L24.756 19.2441C24.7549 18.731 25.135 18.345 25.6418 18.345C26.1487 18.3438 26.5288 18.7286 26.5299 19.2417L26.5311 20.058L33.3733 20.0487L33.3721 19.2324C33.371 18.7193 33.7511 18.3345 34.2579 18.3333C34.7532 18.3322 35.1449 18.717 35.146 19.2301ZM21.2751 26.3385L38.7146 26.3152V25.9071C38.665 23.4 37.4072 22.0846 35.1495 21.8887L35.1506 22.7866C35.1506 23.288 34.7601 23.6857 34.2648 23.6857C33.758 23.6868 33.3767 23.2904 33.3767 22.7889L33.3756 21.8444L26.5334 21.8537L26.5346 22.7971C26.5346 23.2997 26.1556 23.6962 25.6488 23.6962C25.1419 23.6973 24.7607 23.302 24.7607 22.7994L24.7595 21.9016C22.5133 22.1266 21.2705 23.4466 21.2739 25.9759L21.2751 26.3385ZM33.7799 31.6384V31.6512C33.7914 32.1876 34.2291 32.5945 34.7601 32.5829C35.2785 32.5701 35.692 32.1258 35.6805 31.5894C35.6563 31.0763 35.2405 30.6577 34.7233 30.6588C34.1934 30.6705 33.7787 31.102 33.7799 31.6384ZM34.7313 36.8741C34.2015 36.8624 33.7741 36.4205 33.773 35.8841C33.7615 35.3477 34.1865 34.9034 34.7164 34.8906H34.7279C35.2693 34.8906 35.7081 35.3325 35.7081 35.8806C35.7093 36.4286 35.2716 36.8729 34.7313 36.8741ZM29.0341 31.657C29.0572 32.1934 29.496 32.612 30.0259 32.5887C30.5443 32.5642 30.9578 32.1211 30.9347 31.5847C30.9221 31.06 30.4959 30.6518 29.9775 30.653C29.4477 30.6763 29.033 31.1206 29.0341 31.657ZM30.0305 36.8216C29.5007 36.8449 29.0629 36.4263 29.0387 35.8899C29.0387 35.3535 29.4523 34.9104 29.9821 34.8859C30.5005 34.8847 30.9278 35.2929 30.9394 35.8164C30.9635 36.354 30.5489 36.7971 30.0305 36.8216ZM24.2884 31.6978C24.3114 32.2342 24.7503 32.654 25.2802 32.6295C25.7985 32.6062 26.212 32.1619 26.1878 31.6255C26.1763 31.1008 25.7501 30.6927 25.2306 30.6938C24.7008 30.7171 24.2872 31.1614 24.2884 31.6978ZM25.2848 36.8274C24.7549 36.8519 24.3172 36.4321 24.293 35.8957C24.2918 35.3593 24.7065 34.915 25.2364 34.8917C25.7547 34.8906 26.1821 35.2987 26.1936 35.8234C26.2178 36.3598 25.8043 36.8041 25.2848 36.8274Z" fill="url(#paint0_linear_1455_31419)"/>
<defs>
<linearGradient id="paint0_linear_1455_31419" x1="40.5" y1="41.6667" x2="15.1382" y2="35.0486" gradientUnits="userSpaceOnUse">
<stop stop-color="#584CF4"/>
<stop offset="1" stop-color="#7369F8"/>
</linearGradient>
</defs>
</svg>