<svg width="330" height="251" viewBox="0 0 330 251" fill="none" xmlns="http://www.w3.org/2000/svg">
<g clip-path="url(#clip0_1352_20880)">
<path d="M132.15 52.5109H130.949V19.6726C130.949 17.1767 130.457 14.7052 129.501 12.3993C128.544 10.0934 127.143 7.99821 125.376 6.23334C123.609 4.46848 121.511 3.06851 119.202 2.11337C116.893 1.15823 114.419 0.666628 111.92 0.666626H42.2602C37.2132 0.666616 32.3729 2.66901 28.8042 6.2333C25.2354 9.7976 23.2305 14.6318 23.2305 19.6725V199.826C23.2305 202.322 23.7227 204.793 24.679 207.099C25.6353 209.405 27.0371 211.5 28.8041 213.265C30.5712 215.03 32.669 216.43 34.9778 217.385C37.2866 218.34 39.7611 218.832 42.2601 218.832H111.92C116.967 218.832 121.807 216.83 125.376 213.265C128.944 209.701 130.949 204.867 130.949 199.826V75.8857H132.15V52.5109Z" fill="#3F3D56"/>
<path d="M154.477 218.863H0.90308C0.796176 218.863 0.693651 218.821 0.618059 218.745C0.542467 218.67 0.5 218.567 0.5 218.461C0.5 218.354 0.542467 218.251 0.618059 218.176C0.693651 218.1 0.796176 218.058 0.90308 218.058H154.477C154.583 218.058 154.686 218.1 154.762 218.176C154.837 218.251 154.88 218.354 154.88 218.461C154.88 218.567 154.837 218.67 154.762 218.745C154.686 218.821 154.583 218.863 154.477 218.863Z" fill="#35383F"/>
<path d="M280.337 222.204C280.751 221.536 281.239 220.915 281.791 220.355C282.018 220.119 282.258 219.897 282.506 219.681C284.011 218.343 285.845 217.429 287.821 217.034C289.797 216.639 291.842 216.777 293.747 217.433C295.651 218.09 297.347 219.241 298.658 220.768C299.97 222.296 300.85 224.145 301.209 226.125C302.872 219.985 298.544 213.936 294.193 209.291C289.84 204.647 284.865 199.552 284.89 193.188C284.902 189.647 286.636 186.488 289.255 184.146C289.336 184.075 289.416 184.005 289.499 183.936C292.664 181.227 296.736 179.809 300.901 179.967C308.64 180.381 315.397 185.576 320.09 191.738C327.643 201.652 330.953 215.569 325.665 226.855C321.014 236.781 311.094 242.676 300.97 247.414C299.556 248.076 298.146 248.718 296.737 249.34C296.728 249.342 296.718 249.349 296.709 249.351C296.641 249.381 296.573 249.411 296.51 249.442C296.219 249.57 295.928 249.698 295.64 249.824L295.774 249.911L296.19 250.18C296.046 250.093 295.903 250.008 295.758 249.921C295.716 249.895 295.67 249.87 295.627 249.843C290.655 246.864 285.614 243.711 282.178 239.059C278.616 234.229 277.183 227.311 280.337 222.204Z" fill="#35383F"/>
<path d="M313.51 210.987C314.611 213.489 315.341 216.137 315.677 218.849C315.941 221.268 315.842 223.712 315.382 226.101C314.395 231.01 312.242 235.611 309.103 239.516C306.736 242.48 304.002 245.134 300.969 247.414C299.555 248.076 298.144 248.718 296.736 249.34C296.727 249.342 296.717 249.349 296.707 249.351C296.639 249.381 296.572 249.411 296.508 249.442C296.217 249.57 295.927 249.698 295.639 249.824L295.772 249.911L296.188 250.18C296.044 250.093 295.901 250.008 295.757 249.921C295.714 249.895 295.669 249.87 295.626 249.843C296.72 246.021 296.881 241.991 296.095 238.094C295.309 234.196 293.599 230.543 291.108 227.441C288.604 224.379 285.411 221.95 281.789 220.355C282.017 220.119 282.257 219.897 282.504 219.681C283.899 220.321 285.235 221.082 286.496 221.957C291.005 225.07 294.392 229.55 296.153 234.735C297.726 239.438 297.922 244.492 296.719 249.304C296.969 249.141 297.219 248.973 297.463 248.807C302.095 245.687 306.364 241.94 309.58 237.345C312.354 233.462 314.128 228.957 314.748 224.227C315.364 219.061 314.07 213.98 311.761 209.37C309.21 204.438 305.997 199.878 302.209 195.815C298.405 191.641 294.103 187.947 289.401 184.816C289.295 184.745 289.22 184.635 289.193 184.511C289.166 184.386 289.187 184.256 289.253 184.146C289.304 184.047 289.391 183.971 289.497 183.936C289.551 183.923 289.607 183.921 289.662 183.932C289.716 183.943 289.767 183.966 289.811 184C290.392 184.387 290.968 184.777 291.536 185.179C296.272 188.528 300.573 192.452 304.34 196.86C307.98 201.109 311.293 205.83 313.51 210.987Z" fill="#1F222A"/>
<path d="M175.524 250.667H329.098C329.205 250.667 329.307 250.624 329.383 250.549C329.458 250.473 329.501 250.371 329.501 250.264C329.501 250.157 329.458 250.055 329.383 249.979C329.307 249.904 329.205 249.861 329.098 249.861H175.524C175.417 249.861 175.315 249.904 175.239 249.979C175.164 250.055 175.121 250.157 175.121 250.264C175.121 250.371 175.164 250.473 175.239 250.549C175.315 250.624 175.417 250.667 175.524 250.667Z" fill="#35383F"/>
<path d="M212.458 218.545L205.012 218.429L205.907 243.777H212.457L212.458 218.545Z" fill="#FFB7B7"/>
<path d="M214.128 241.642L201.229 241.641H201.228C199.048 241.641 196.957 242.506 195.416 244.046C193.874 245.585 193.008 247.674 193.008 249.851V250.118L214.127 250.119L214.128 241.642Z" fill="#2F2E41"/>
<path d="M261.761 211.822L253.627 217.038L269.898 236.589L275.41 233.055L261.761 211.822Z" fill="#FFB7B7"/>
<path d="M275.661 230.356L264.807 237.316L264.806 237.317C262.972 238.493 261.68 240.349 261.216 242.477C260.752 244.604 261.152 246.829 262.33 248.661L262.475 248.885L280.247 237.49L275.661 230.356Z" fill="#2F2E41"/>
<path d="M196.145 151.119C194.752 151.505 193.265 151.368 191.967 150.733C190.668 150.098 189.648 149.009 189.1 147.673C188.551 146.337 188.512 144.846 188.991 143.483C189.469 142.121 190.432 140.981 191.695 140.279L204.231 126.075L214.834 128.363L199.921 142.951C200.288 143.727 200.48 144.573 200.484 145.431C200.487 146.289 200.302 147.137 199.942 147.916C199.582 148.694 199.056 149.385 198.4 149.938C197.744 150.491 196.974 150.894 196.145 151.119H196.145Z" fill="#FFB7B7"/>
<path d="M173.034 125.147C175.468 125.147 177.442 123.177 177.442 120.746C177.442 118.315 175.468 116.344 173.034 116.344C170.6 116.344 168.627 118.315 168.627 120.746C168.627 123.177 170.6 125.147 173.034 125.147Z" fill="#35383F"/>
<path d="M302.021 113.07C304.455 113.07 306.428 111.099 306.428 108.668C306.428 106.237 304.455 104.267 302.021 104.267C299.587 104.267 297.613 106.237 297.613 108.668C297.613 111.099 299.587 113.07 302.021 113.07Z" fill="#35383F"/>
<path d="M112.687 5.61133H103.594C104.012 6.63523 104.171 7.74614 104.058 8.84617C103.945 9.9462 103.563 11.0016 102.946 11.9194C102.328 12.8372 101.494 13.5892 100.517 14.1092C99.5399 14.6292 98.4497 14.9013 97.3425 14.9013H57.4355C56.3284 14.9013 55.2382 14.6292 54.2611 14.1092C53.2839 13.5892 52.4498 12.8372 51.8323 11.9194C51.2147 11.0016 50.8326 9.94621 50.7196 8.84617C50.6066 7.74614 50.7662 6.63523 51.1844 5.61133H42.6916C40.8254 5.61133 38.9774 5.97845 37.2533 6.69174C35.5291 7.40502 33.9625 8.4505 32.6428 9.76848C31.3232 11.0865 30.2764 12.6511 29.5622 14.3731C28.8481 16.0952 28.4805 17.9408 28.4805 19.8047V199.694C28.4805 201.558 28.8481 203.403 29.5622 205.126C30.2764 206.848 31.3232 208.412 32.6428 209.73C33.9624 211.048 35.5291 212.094 37.2533 212.807C38.9774 213.52 40.8254 213.887 42.6916 213.887H112.687C114.553 213.887 116.401 213.52 118.125 212.807C119.849 212.094 121.416 211.048 122.735 209.73C124.055 208.412 125.102 206.848 125.816 205.126C126.53 203.404 126.898 201.558 126.898 199.694V19.8047C126.898 17.9408 126.53 16.0952 125.816 14.3731C125.102 12.6511 124.055 11.0865 122.735 9.76848C121.416 8.4505 119.849 7.40502 118.125 6.69174C116.401 5.97845 114.553 5.61133 112.687 5.61133Z" fill="#1F222A"/>
<path d="M77.689 139.829C96.4879 139.829 111.728 124.609 111.728 105.833C111.728 87.0576 96.4879 71.837 77.689 71.837C58.89 71.837 43.6504 87.0576 43.6504 105.833C43.6504 124.609 58.89 139.829 77.689 139.829Z" fill="#9610FF"/>
<path d="M74.3171 118.802C73.5513 118.803 72.8059 118.556 72.1932 118.097L72.1552 118.068L64.1557 111.957C63.7852 111.673 63.4743 111.319 63.2407 110.915C63.0071 110.512 62.8554 110.066 62.7943 109.604C62.7332 109.142 62.7638 108.672 62.8844 108.221C63.005 107.771 63.2133 107.349 63.4974 106.979C63.7814 106.609 64.1356 106.298 64.5398 106.065C64.944 105.831 65.3903 105.68 65.8531 105.619C66.3159 105.558 66.7862 105.588 67.2372 105.709C67.6882 105.829 68.111 106.037 68.4815 106.321L73.6629 110.289L85.907 94.3358C86.1909 93.9659 86.545 93.6555 86.949 93.4223C87.353 93.1891 87.7991 93.0376 88.2617 92.9766C88.7243 92.9156 89.1945 92.9462 89.6453 93.0666C90.0961 93.187 90.5187 93.395 90.889 93.6785L90.8901 93.6793L90.8141 93.7847L90.8921 93.6793C91.6393 94.2528 92.1281 95.0989 92.2513 96.032C92.3745 96.965 92.1221 97.9088 91.5494 98.6561L77.1478 117.413C76.8146 117.845 76.3862 118.195 75.8958 118.435C75.4055 118.675 74.8663 118.799 74.3202 118.797L74.3171 118.802Z" fill="#1F222A"/>
<path d="M237.39 100.266L206.145 139.437L196.621 135.07L233.346 77.9662L237.39 100.266Z" fill="#3F3D56"/>
<path d="M312.149 39.5697C312.351 38.1397 312.02 36.6856 311.22 35.4829C310.42 34.2801 309.206 33.4122 307.808 33.0437C306.41 32.6752 304.925 32.8316 303.635 33.4834C302.345 34.1352 301.339 35.237 300.808 36.58L288.346 50.8491L292.002 61.0491L304.535 44.3763C305.353 44.6379 306.218 44.7173 307.07 44.6088C307.922 44.5003 308.74 44.2066 309.466 43.7483C310.192 43.29 310.808 42.6784 311.272 41.9564C311.735 41.2344 312.035 40.4197 312.149 39.5697Z" fill="#FFB7B7"/>
<path d="M260.492 95.0905L301.86 50.9967L296.28 42.1368L244.395 85.9629L260.492 95.0905Z" fill="#3F3D56"/>
<path d="M251.259 68.2995C259.273 68.2995 265.77 61.8108 265.77 53.8067C265.77 45.8026 259.273 39.314 251.259 39.314C243.245 39.314 236.748 45.8026 236.748 53.8067C236.748 61.8108 243.245 68.2995 251.259 68.2995Z" fill="#2F2E41"/>
<path d="M252.426 45.6197C255.548 42.4572 259.327 40.0168 263.496 38.4702C266.172 37.4801 269.084 36.8684 271.882 37.4307C274.679 37.993 277.325 39.9259 278.105 42.6673C278.744 44.909 278.085 47.3226 277.094 49.4328C276.104 51.543 274.781 53.4998 273.981 55.6888C273.163 57.9223 272.918 60.3243 273.266 62.6767C273.614 65.0292 274.544 67.2575 275.973 69.1596C277.402 71.0616 279.284 72.5771 281.449 73.5684C283.613 74.5598 285.991 74.9956 288.366 74.8363C285.617 75.2044 283.084 76.4945 280.397 77.1812C277.71 77.8679 274.539 77.8213 272.542 75.8989C270.43 73.8649 270.388 70.5579 270.49 67.629C270.642 63.2751 270.793 58.9213 270.945 54.5674C271.023 52.347 271.089 50.0555 270.287 47.9831C269.485 45.9106 267.58 44.0959 265.355 44.1148C263.67 44.1291 262.177 45.1491 260.825 46.155C259.473 47.161 258.042 48.2342 256.363 48.3839C254.684 48.5335 252.766 47.2923 252.892 45.6131L252.426 45.6197Z" fill="#2F2E41"/>
<path d="M264.66 134.419C264.66 134.419 246.586 74.464 240.778 73.6538C234.969 72.8436 225.611 89.0375 225.611 89.0375C213.477 104.5 200.965 154.585 200.965 154.585C200.965 154.585 221.823 155.889 237.07 163.991C252.317 172.093 270.311 163.581 270.311 163.581L264.66 134.419Z" fill="#3F3D56"/>
<path opacity="0.1" d="M264.66 134.419C264.66 134.419 246.586 74.464 240.778 73.6538C234.969 72.8436 227.988 89.2018 227.988 89.2018C221.942 114.162 200.965 154.585 200.965 154.585C200.965 154.585 221.823 155.889 237.07 163.991C252.317 172.093 270.311 163.581 270.311 163.581L264.66 134.419Z" fill="black"/>
<path d="M249.832 116.481V146.607L253.382 190.248L271.117 223.26L262.653 229.298L238.468 197.897L228.902 166.718L213.88 235.739L202.594 234.934L210.432 139.237L225.306 112.301L249.832 116.481Z" fill="#2F2E41"/>
<path d="M231.608 87.3412C225.965 92.9772 231.205 99.0159 231.205 99.0159L224.756 113.509L250.15 120.352L259.024 80.7477L252.978 74.3064C240.886 73.9039 240.879 73.6536 240.879 73.6536C238.76 75.7243 231.608 87.3412 231.608 87.3412Z" fill="#9610FF"/>
<path d="M260.047 76.6447C258.894 75.7944 257.583 75.1812 256.19 74.8404C254.798 74.4997 253.352 74.4382 251.936 74.6596C250.519 74.881 249.161 75.3809 247.94 76.1303C246.718 76.8796 245.658 77.8636 244.82 79.0252C238.436 87.9029 232.533 102.238 240.666 120.117C253.725 148.824 265.09 163.52 269.71 163.519C269.912 163.521 270.112 163.489 270.304 163.426C273.148 162.462 277.259 157.656 278.004 153.421C278.27 151.905 278.207 149.793 276.392 148.343C271.177 144.178 261.817 131.209 258.897 114.139C257.283 104.707 260.413 96.1146 263.322 90.568C264.551 88.273 264.91 85.6125 264.335 83.0742C263.759 80.5359 262.286 78.2899 260.187 76.7479L260.047 76.6447Z" fill="#3F3D56"/>
<path d="M252.007 66.8758C257.183 64.0496 259.085 57.5676 256.256 52.3976C253.426 47.2277 246.936 45.3277 241.759 48.1538C236.583 50.98 234.681 57.4621 237.51 62.632C240.34 67.8019 246.83 69.7019 252.007 66.8758Z" fill="#FFB7B7"/>
<path d="M231.859 56.7082H247.283L247.442 54.4965L248.232 56.7082H250.607L250.921 52.3247L252.488 56.7082H257.084V56.491C257.08 53.4393 255.865 50.5135 253.704 48.3556C251.544 46.1977 248.614 44.9839 245.559 44.9805H243.384C240.329 44.9839 237.399 46.1977 235.239 48.3556C233.078 50.5135 231.863 53.4393 231.859 56.491V56.7082Z" fill="#2F2E41"/>
<path d="M254.755 64.6579L261.337 62.5247V46.5603H248.904L249.212 46.8672C253.495 51.1389 258.258 66.2944 254.755 64.6579Z" fill="#2F2E41"/>
<path d="M212.133 16.4519C216.126 16.4519 219.362 13.2194 219.362 9.23204C219.362 5.24464 216.126 2.01221 212.133 2.01221C208.141 2.01221 204.904 5.24464 204.904 9.23204C204.904 13.2194 208.141 16.4519 212.133 16.4519Z" fill="#35383F"/>
</g>
<defs>
<clipPath id="clip0_1352_20880">
<rect width="329" height="250" fill="white" transform="translate(0.5 0.666626)"/>
</clipPath>
</defs>
</svg>
