<svg width="26" height="26"  viewBox="0 0 34 34" fill="none" xmlns="http://www.w3.org/2000/svg">
<path fill-rule="evenodd" clip-rule="evenodd" d="M24.7742 0.350233C27.1717 0.200388 29.536 1.03286 31.3175 2.66451C32.9491 4.446 33.7816 6.81022 33.6484 9.22439V24.775C33.7983 27.1891 32.9491 29.5534 31.3341 31.3348C29.5526 32.9665 27.1717 33.799 24.7742 33.6491H9.22348C6.80929 33.799 4.44505 32.9665 2.66355 31.3348C1.03189 29.5534 0.199411 27.1891 0.349257 24.775V9.22439C0.199411 6.81022 1.03189 4.446 2.66355 2.66451C4.44505 1.03286 6.80929 0.200388 9.22348 0.350233H24.7742ZM15.2984 25.0744L26.5035 13.8361C27.5192 12.8038 27.5192 11.1389 26.5035 10.1232L24.3391 7.95881C23.3068 6.92655 21.6419 6.92655 20.6096 7.95881L19.4941 9.09097C19.3276 9.25747 19.3276 9.54051 19.4941 9.707C19.4941 9.707 22.1414 12.3376 22.1913 12.4042C22.3744 12.604 22.491 12.8704 22.491 13.1701C22.491 13.7695 22.0082 14.2689 21.3921 14.2689C21.1091 14.2689 20.8427 14.1524 20.6595 13.9693L17.8791 11.2055C17.7459 11.0723 17.5128 11.0723 17.3796 11.2055L9.43773 19.1472C8.88829 19.6967 8.57195 20.4292 8.5553 21.2118L8.4554 25.1577C8.4554 25.3741 8.522 25.5739 8.67185 25.7238C8.8217 25.8736 9.02149 25.9569 9.23793 25.9569H13.1506C13.9498 25.9569 14.7156 25.6405 15.2984 25.0744Z" fill="#584CF4"/>
</svg>