<svg width="80" height="81" viewBox="0 0 80 81" fill="none" xmlns="http://www.w3.org/2000/svg">
<rect y="0.666626" width="80" height="80" rx="40" fill="#35383F"/>
<path fill-rule="evenodd" clip-rule="evenodd" d="M46.5866 28.6666C48.3746 28.6666 50.0946 29.3733 51.36 30.6413C52.6266 31.9066 53.3346 33.6133 53.3346 35.4V45.9333C53.3346 49.6533 50.308 52.6666 46.5866 52.6666H33.4146C29.6933 52.6666 26.668 49.6533 26.668 45.9333V35.4C26.668 31.68 29.68 28.6666 33.4146 28.6666H46.5866ZM48.708 37.3866L48.8146 37.28C49.1333 36.8933 49.1333 36.3333 48.8 35.9466C48.6146 35.748 48.36 35.6266 48.0946 35.6C47.8146 35.5853 47.548 35.68 47.3466 35.8666L41.3346 40.6666C40.5613 41.308 39.4533 41.308 38.668 40.6666L32.668 35.8666C32.2533 35.56 31.68 35.6 31.3346 35.96C30.9746 36.32 30.9346 36.8933 31.24 37.2933L31.4146 37.4666L37.4813 42.2C38.228 42.7866 39.1333 43.1066 40.0813 43.1066C41.0266 43.1066 41.948 42.7866 42.6933 42.2L48.708 37.3866Z" fill="white"/>
</svg>
