<svg width="80" height="80" viewBox="0 0 80 80" fill="none" xmlns="http://www.w3.org/2000/svg">
<rect width="80" height="80" rx="40" fill="#9610FF" fill-opacity="0.08"/>
<path fill-rule="evenodd" clip-rule="evenodd" d="M46.5866 28C48.3746 28 50.0946 28.7067 51.36 29.9747C52.6266 31.24 53.3346 32.9467 53.3346 34.7333V45.2667C53.3346 48.9867 50.308 52 46.5866 52H33.4146C29.6933 52 26.668 48.9867 26.668 45.2667V34.7333C26.668 31.0133 29.68 28 33.4146 28H46.5866ZM48.708 36.72L48.8146 36.6133C49.1333 36.2267 49.1333 35.6667 48.8 35.28C48.6146 35.0813 48.36 34.96 48.0946 34.9333C47.8146 34.9187 47.548 35.0133 47.3466 35.2L41.3346 40C40.5613 40.6413 39.4533 40.6413 38.668 40L32.668 35.2C32.2533 34.8933 31.68 34.9333 31.3346 35.2933C30.9746 35.6533 30.9346 36.2267 31.24 36.6267L31.4146 36.8L37.4813 41.5333C38.228 42.12 39.1333 42.44 40.0813 42.44C41.0266 42.44 41.948 42.12 42.6933 41.5333L48.708 36.72Z" fill="url(#paint0_linear_1352_20819)"/>
<defs>
<linearGradient id="paint0_linear_1352_20819" x1="53.3346" y1="52" x2="22.1706" y2="41.9603" gradientUnits="userSpaceOnUse">
<stop stop-color="#9610FF"/>
<stop offset="1" stop-color="#AF48FF"/>
</linearGradient>
</defs>
</svg>