<svg width="21" height="20" viewBox="0 0 21 20" fill="none" xmlns="http://www.w3.org/2000/svg">
<path fill-rule="evenodd" clip-rule="evenodd" d="M0.400391 10.0001C0.400391 4.48012 4.87039 0.00012207 10.4004 0.00012207C15.9204 0.00012207 20.4004 4.48012 20.4004 10.0001C20.4004 15.5301 15.9204 20.0001 10.4004 20.0001C4.87039 20.0001 0.400391 15.5301 0.400391 10.0001ZM12.6304 11.8301L14.2504 6.71012C14.3604 6.36012 14.0404 6.03012 13.6904 6.14012L8.57039 7.74012C8.36039 7.81012 8.19039 7.97012 8.13039 8.18012L6.53039 13.3101C6.42039 13.6501 6.75039 13.9801 7.09039 13.8701L12.1904 12.2701C12.4004 12.2101 12.5704 12.0401 12.6304 11.8301Z" fill="#9610FF"/>
</svg>