<svg width="48" height="48" viewBox="0 0 48 48" fill="none" xmlns="http://www.w3.org/2000/svg">
<rect width="48" height="48" rx="24" fill="#009689"/>
<path fill-rule="evenodd" clip-rule="evenodd" d="M28.6653 14.0103C30.1038 13.9204 31.5224 14.4199 32.5913 15.3989C33.5703 16.4678 34.0697 17.8863 33.9898 19.3348V28.6652C34.0797 30.1137 33.5703 31.5322 32.6013 32.6011C31.5323 33.5801 30.1038 34.0796 28.6653 33.9897H19.3349C17.8864 34.0796 16.4678 33.5801 15.3989 32.6011C14.4199 31.5322 13.9204 30.1137 14.0103 28.6652V19.3348C13.9204 17.8863 14.4199 16.4678 15.3989 15.3989C16.4678 14.4199 17.8864 13.9204 19.3349 14.0103H28.6653ZM22.9811 28.845L29.7042 22.102C30.3136 21.4826 30.3136 20.4836 29.7042 19.8743L28.4056 18.5756C27.7862 17.9563 26.7872 17.9563 26.1679 18.5756L25.4985 19.2549C25.3986 19.3548 25.3986 19.5246 25.4985 19.6245C25.4985 19.6245 27.0869 21.2029 27.1169 21.2429C27.2268 21.3627 27.2967 21.5226 27.2967 21.7024C27.2967 22.062 27.007 22.3617 26.6374 22.3617C26.4675 22.3617 26.3077 22.2918 26.1978 22.1819L24.5295 20.5236C24.4496 20.4437 24.3098 20.4437 24.2298 20.5236L19.4647 25.2887C19.1351 25.6183 18.9453 26.0579 18.9353 26.5274L18.8753 28.8949C18.8753 29.0248 18.9153 29.1447 19.0052 29.2346C19.0951 29.3245 19.215 29.3744 19.3449 29.3744H21.6924C22.172 29.3744 22.6315 29.1846 22.9811 28.845Z" fill="white"/>
</svg>
