<svg width="56" height="56" viewBox="0 0 56 56" fill="none" xmlns="http://www.w3.org/2000/svg">
<rect width="56" height="56" rx="28" fill="#EEEDFE"/>
<path fill-rule="evenodd" clip-rule="evenodd" d="M29.45 20.8799H32.52C36.21 20.8799 38.01 22.8499 38 26.8899V31.7599C38 35.6199 35.62 37.9999 31.75 37.9999H24.24C20.39 37.9999 18 35.6199 18 31.7499V24.2399C18 20.0999 19.84 17.9999 23.47 17.9999H25.05C25.981 17.9899 26.85 18.4199 27.42 19.1499L28.3 20.3199C28.58 20.6699 29 20.8799 29.45 20.8799ZM23.3698 31.2898H32.6298C33.0398 31.2898 33.3698 30.9498 33.3698 30.5398C33.3698 30.1198 33.0398 29.7898 32.6298 29.7898H23.3698C22.9498 29.7898 22.6198 30.1198 22.6198 30.5398C22.6198 30.9498 22.9498 31.2898 23.3698 31.2898Z" fill="url(#paint0_linear_1435_18799)"/>
<defs>
<linearGradient id="paint0_linear_1435_18799" x1="38" y1="37.9999" x2="14.2018" y2="31.0999" gradientUnits="userSpaceOnUse">
<stop stop-color="#584CF4"/>
<stop offset="1" stop-color="#7369F8"/>
</linearGradient>
</defs>
</svg>