<svg width="28" height="28" viewBox="0 0 28 28" fill="none" xmlns="http://www.w3.org/2000/svg">
<path d="M12.052 19.3584H4.70117" stroke="white" stroke-width="1.5" stroke-linecap="round" stroke-linejoin="round"/>
<path d="M15.3301 8.05043H22.6809" stroke="white" stroke-width="1.5" stroke-linecap="round" stroke-linejoin="round"/>
<path fill-rule="evenodd" clip-rule="evenodd" d="M10.18 7.9873C10.18 6.4757 8.9455 5.25 7.42302 5.25C5.90054 5.25 4.66602 6.4757 4.66602 7.9873C4.66602 9.49889 5.90054 10.7246 7.42302 10.7246C8.9455 10.7246 10.18 9.49889 10.18 7.9873Z" stroke="white" stroke-width="1.5" stroke-linecap="round" stroke-linejoin="round"/>
<path fill-rule="evenodd" clip-rule="evenodd" d="M23.3324 19.3127C23.3324 17.8011 22.0988 16.5754 20.5763 16.5754C19.0529 16.5754 17.8184 17.8011 17.8184 19.3127C17.8184 20.8243 19.0529 22.05 20.5763 22.05C22.0988 22.05 23.3324 20.8243 23.3324 19.3127Z" stroke="white" stroke-width="1.5" stroke-linecap="round" stroke-linejoin="round"/>
</svg>