<svg width="28" height="28" viewBox="0 0 28 28" fill="none" xmlns="http://www.w3.org/2000/svg">
<path d="M12.052 19.3584H4.70117" stroke="#212121" stroke-width="1.5" stroke-linecap="round" stroke-linejoin="round"/>
<path d="M15.3311 8.05043H22.6819" stroke="#212121" stroke-width="1.5" stroke-linecap="round" stroke-linejoin="round"/>
<path fill-rule="evenodd" clip-rule="evenodd" d="M10.181 7.9873C10.181 6.4757 8.94647 5.25 7.42399 5.25C5.90151 5.25 4.66699 6.4757 4.66699 7.9873C4.66699 9.49889 5.90151 10.7246 7.42399 10.7246C8.94647 10.7246 10.181 9.49889 10.181 7.9873Z" stroke="#212121" stroke-width="1.5" stroke-linecap="round" stroke-linejoin="round"/>
<path fill-rule="evenodd" clip-rule="evenodd" d="M23.3333 19.3127C23.3333 17.8011 22.0998 16.5754 20.5773 16.5754C19.0539 16.5754 17.8193 17.8011 17.8193 19.3127C17.8193 20.8243 19.0539 22.05 20.5773 22.05C22.0998 22.05 23.3333 20.8243 23.3333 19.3127Z" stroke="#212121" stroke-width="1.5" stroke-linecap="round" stroke-linejoin="round"/>
</svg>