<svg width="229" height="237" viewBox="0 0 229 237" fill="none" xmlns="http://www.w3.org/2000/svg">
<path d="M59.1255 29.3563C74.063 20.2563 95.3943 15.4188 117.613 16.1563C139.801 16.9 161.944 23.175 178.601 35.2625C180.278 36.4792 182.37 36.9797 184.417 36.6538C186.463 36.328 188.296 35.2025 189.513 33.525C190.73 31.8475 191.23 29.7554 190.904 27.7089C190.578 25.6624 189.453 23.8292 187.776 22.6125C168.026 8.28753 142.651 1.36253 118.138 0.543783C93.6693 -0.274967 69.138 4.96253 51.0006 16.0188C50.0904 16.5351 49.2933 17.229 48.6565 18.0593C48.0196 18.8896 47.5561 19.8394 47.2933 20.8523C47.0306 21.8652 46.974 22.9205 47.127 23.9557C47.2799 24.9909 47.6392 25.9848 48.1836 26.8784C48.728 27.772 49.4464 28.5472 50.2961 29.1579C51.1458 29.7686 52.1095 30.2024 53.1301 30.4335C54.1506 30.6646 55.2072 30.6883 56.2371 30.5033C57.267 30.3183 58.2493 29.9282 59.1255 29.3563ZM124.732 36.7813C123.713 36.6606 122.68 36.7419 121.692 37.0203C120.705 37.2988 119.782 37.7691 118.976 38.4043C118.17 39.0395 117.497 39.8272 116.996 40.7225C116.494 41.6177 116.174 42.6029 116.054 43.6219C115.933 44.6409 116.014 45.6736 116.293 46.6612C116.571 47.6488 117.041 48.5719 117.677 49.3777C118.312 50.1835 119.1 50.8564 119.995 51.3578C120.89 51.8592 121.875 52.1794 122.894 52.3C171.826 58.1125 203.669 95.9 212.994 149.038C213.384 151.048 214.547 152.826 216.234 153.987C217.921 155.149 219.997 155.601 222.014 155.247C224.032 154.893 225.83 153.761 227.02 152.095C228.211 150.428 228.7 148.361 228.382 146.338C218.232 88.4938 182.413 43.6313 124.732 36.7813ZM82.8443 99.7813C58.988 118.875 45.3318 160.219 71.438 212.969C72.341 214.823 72.474 216.96 71.808 218.912C71.142 220.864 69.731 222.473 67.8829 223.389C66.0347 224.305 63.8994 224.453 61.9426 223.8C59.9859 223.148 58.3667 221.748 57.438 219.906C28.7881 162.025 42.313 112.2 73.0818 87.5813C88.3255 75.3813 107.594 69.675 127.032 72.725C146.532 75.7875 165.438 87.55 180.226 108.856C180.831 109.698 181.263 110.652 181.496 111.662C181.729 112.672 181.759 113.719 181.584 114.741C181.408 115.763 181.031 116.739 180.474 117.614C179.917 118.489 179.192 119.244 178.341 119.835C177.489 120.427 176.528 120.843 175.514 121.059C174.5 121.276 173.453 121.288 172.434 121.096C171.416 120.903 170.445 120.51 169.58 119.939C168.715 119.368 167.972 118.63 167.394 117.769C154.682 99.4563 139.319 90.475 124.607 88.1625C109.819 85.8375 94.9193 90.1188 82.8443 99.7813ZM112.082 225.469C96.088 193.156 91.2068 165.844 94.113 147.763C95.5505 138.8 98.8005 132.681 102.882 129.006C106.826 125.463 112.319 123.494 119.951 124.213C130.094 125.175 134.844 128.513 137.776 132.494C141.163 137.094 142.951 143.556 144.988 152.763L145.601 155.556C149.382 172.956 154.382 195.913 178.638 213.4C180.319 214.612 182.412 215.106 184.457 214.774C186.503 214.443 188.333 213.312 189.544 211.631C190.756 209.95 191.25 207.857 190.919 205.812C190.587 203.766 189.456 201.937 187.776 200.725C168.463 186.8 164.588 169.175 160.738 151.638L160.238 149.388C158.301 140.625 156.001 130.888 150.357 123.231C144.257 114.95 135.026 109.95 121.426 108.663C110.113 107.588 100.094 110.506 92.4443 117.381C84.938 124.131 80.5068 133.944 78.6818 145.288C75.0693 167.819 81.3255 198.55 98.0818 232.4C99.0338 234.198 100.65 235.554 102.586 236.179C104.523 236.805 106.626 236.65 108.45 235.747C110.274 234.845 111.674 233.267 112.352 231.349C113.03 229.43 112.933 227.323 112.082 225.475V225.469ZM39.0506 36.275C40.421 37.8284 41.1185 39.8624 40.9895 41.9299C40.8606 43.9973 39.9159 45.929 38.3631 47.3C28.3881 56.1063 21.6568 64.9688 14.9693 76.5938C14.4572 77.4831 13.7749 78.2628 12.9614 78.8884C12.1479 79.514 11.2191 79.9733 10.2282 80.2399C9.23718 80.5066 8.20338 80.5755 7.18579 80.4426C6.16819 80.3098 5.18673 79.9778 4.29743 79.4656C3.40814 78.9535 2.62843 78.2712 2.00282 77.4577C1.37721 76.6442 0.917956 75.7155 0.651278 74.7245C0.384599 73.7335 0.31572 72.6997 0.448571 71.6821C0.581422 70.6645 0.913404 69.6831 1.42556 68.7938C8.77556 56.025 16.5256 45.7313 28.0256 35.5875C29.5789 34.2171 31.6129 33.5196 33.6804 33.6486C35.7479 33.7775 37.6795 34.7222 39.0506 36.275ZM192.476 146.494C192.128 144.473 191 142.671 189.335 141.474C187.67 140.278 185.602 139.784 183.576 140.099C181.55 140.414 179.73 141.513 178.506 143.158C177.283 144.803 176.756 146.863 177.038 148.894C180.226 169.375 190.819 182.313 203.632 191.538C204.465 192.137 205.408 192.566 206.407 192.801C207.406 193.035 208.441 193.071 209.454 192.906C210.467 192.74 211.437 192.377 212.309 191.837C213.181 191.296 213.939 190.589 214.538 189.756C215.137 188.923 215.566 187.98 215.801 186.981C216.036 185.982 216.072 184.947 215.906 183.934C215.741 182.921 215.378 181.951 214.837 181.079C214.297 180.207 213.59 179.449 212.757 178.85C202.601 171.538 194.894 162.013 192.476 146.494ZM116.988 146.15C118.012 146.073 119.04 146.199 120.015 146.52C120.99 146.841 121.892 147.351 122.67 148.021C123.448 148.691 124.086 149.507 124.548 150.424C125.01 151.34 125.287 152.339 125.363 153.363C127.269 178.831 136.594 200.406 151.576 217.55C152.273 218.319 152.809 219.219 153.155 220.198C153.5 221.177 153.647 222.214 153.587 223.25C153.527 224.286 153.261 225.3 152.804 226.232C152.348 227.164 151.71 227.996 150.929 228.679C150.147 229.362 149.238 229.883 148.253 230.21C147.268 230.538 146.228 230.666 145.193 230.587C144.158 230.508 143.149 230.224 142.226 229.751C141.302 229.277 140.482 228.625 139.813 227.831C122.551 208.081 111.938 183.288 109.782 154.525C109.705 153.502 109.831 152.474 110.151 151.499C110.472 150.525 110.981 149.623 111.65 148.845C112.32 148.067 113.135 147.429 114.051 146.967C114.967 146.504 115.965 146.227 116.988 146.15ZM92.4755 54.9C93.4215 54.502 94.2797 53.9215 95.0013 53.1917C95.7229 52.462 96.2937 51.5972 96.6811 50.6469C97.0685 49.6965 97.2649 48.6792 97.2591 47.6529C97.2533 46.6267 97.0455 45.6116 96.6474 44.6657C96.2493 43.7197 95.6689 42.8615 94.9391 42.1399C94.2093 41.4183 93.3446 40.8475 92.3943 40.4601C91.4439 40.0727 90.4266 39.8763 89.4003 39.8821C88.374 39.8879 87.359 40.0957 86.413 40.4938C30.3381 64.075 2.38181 116.831 9.81306 179.85C9.93289 180.869 10.2522 181.854 10.7529 182.75C11.2536 183.646 11.9257 184.434 12.731 185.069C13.5362 185.705 14.4588 186.176 15.4461 186.455C16.4334 186.735 17.466 186.817 18.4849 186.697C19.5039 186.577 20.4893 186.258 21.3849 185.757C22.2804 185.256 23.0686 184.584 23.7044 183.779C24.3402 182.974 24.8111 182.051 25.0904 181.064C25.3696 180.077 25.4516 179.044 25.3318 178.025C18.6256 121.15 43.5006 75.4938 92.4755 54.8875V54.9Z" fill="url(#paint0_linear_1349_28505)"/>
<defs>
<linearGradient id="paint0_linear_1349_28505" x1="228.477" y1="236.557" x2="-44.3445" y2="160.136" gradientUnits="userSpaceOnUse">
<stop stop-color="#9610FF"/>
<stop offset="1" stop-color="#AF48FF"/>
</linearGradient>
</defs>
</svg>