<svg width="229" height="237" viewBox="0 0 229 237" fill="none" xmlns="http://www.w3.org/2000/svg">
<path d="M59.1246 29.3563C74.0621 20.2563 95.3933 15.4188 117.612 16.1563C139.8 16.9 161.943 23.175 178.6 35.2625C180.277 36.4792 182.369 36.9797 184.416 36.6538C186.462 36.328 188.295 35.2025 189.512 33.525C190.729 31.8475 191.229 29.7554 190.903 27.7089C190.577 25.6624 189.452 23.8292 187.775 22.6125C168.025 8.28753 142.65 1.36253 118.137 0.543783C93.6683 -0.274967 69.1371 4.96253 50.9996 16.0188C50.0894 16.5351 49.2923 17.229 48.6555 18.0593C48.0187 18.8896 47.5551 19.8394 47.2924 20.8523C47.0296 21.8652 46.9731 22.9205 47.126 23.9557C47.2789 24.9909 47.6382 25.9848 48.1826 26.8784C48.727 27.772 49.4454 28.5472 50.2951 29.1579C51.1448 29.7686 52.1085 30.2024 53.1291 30.4335C54.1496 30.6646 55.2062 30.6883 56.2361 30.5033C57.2661 30.3183 58.2483 29.9282 59.1246 29.3563ZM124.731 36.7813C123.712 36.6606 122.679 36.7419 121.691 37.0203C120.704 37.2988 119.781 37.7691 118.975 38.4043C118.169 39.0395 117.496 39.8272 116.995 40.7225C116.494 41.6177 116.173 42.6029 116.053 43.6219C115.932 44.6409 116.013 45.6736 116.292 46.6612C116.57 47.6488 117.04 48.5719 117.676 49.3777C118.311 50.1835 119.099 50.8564 119.994 51.3578C120.889 51.8592 121.874 52.1794 122.893 52.3C171.825 58.1125 203.668 95.9 212.993 149.038C213.383 151.048 214.546 152.826 216.233 153.987C217.92 155.149 219.996 155.601 222.014 155.247C224.031 154.893 225.829 153.761 227.02 152.095C228.21 150.428 228.699 148.361 228.381 146.338C218.231 88.4938 182.412 43.6313 124.731 36.7813ZM82.8433 99.7813C58.9871 118.875 45.3308 160.219 71.4371 212.969C72.3401 214.823 72.4731 216.96 71.807 218.912C71.141 220.864 69.73 222.473 67.8819 223.389C66.0337 224.305 63.8984 224.453 61.9417 223.8C59.985 223.148 58.3657 221.748 57.4371 219.906C28.7871 162.025 42.3121 112.2 73.0808 87.5813C88.3246 75.3813 107.593 69.675 127.031 72.725C146.531 75.7875 165.437 87.55 180.225 108.856C180.83 109.698 181.262 110.652 181.495 111.662C181.728 112.672 181.758 113.719 181.583 114.741C181.407 115.763 181.03 116.739 180.473 117.614C179.916 118.489 179.191 119.244 178.34 119.835C177.488 120.427 176.527 120.843 175.513 121.059C174.499 121.276 173.452 121.288 172.433 121.096C171.415 120.903 170.444 120.51 169.579 119.939C168.714 119.368 167.971 118.63 167.393 117.769C154.681 99.4563 139.318 90.475 124.606 88.1625C109.818 85.8375 94.9183 90.1188 82.8433 99.7813ZM112.081 225.469C96.0871 193.156 91.2058 165.844 94.1121 147.763C95.5496 138.8 98.7996 132.681 102.881 129.006C106.825 125.463 112.318 123.494 119.95 124.213C130.093 125.175 134.843 128.513 137.775 132.494C141.162 137.094 142.95 143.556 144.987 152.763L145.6 155.556C149.381 172.956 154.381 195.913 178.637 213.4C180.318 214.612 182.411 215.106 184.456 214.774C186.502 214.443 188.332 213.312 189.543 211.631C190.755 209.95 191.249 207.857 190.918 205.812C190.586 203.766 189.455 201.937 187.775 200.725C168.462 186.8 164.587 169.175 160.737 151.638L160.237 149.388C158.3 140.625 156 130.888 150.356 123.231C144.256 114.95 135.025 109.95 121.425 108.663C110.112 107.588 100.093 110.506 92.4433 117.381C84.9371 124.131 80.5058 133.944 78.6808 145.288C75.0683 167.819 81.3246 198.55 98.0808 232.4C99.0328 234.198 100.649 235.554 102.585 236.179C104.522 236.805 106.625 236.65 108.449 235.747C110.273 234.845 111.673 233.267 112.351 231.349C113.029 229.43 112.932 227.323 112.081 225.475V225.469ZM39.0496 36.275C40.42 37.8284 41.1175 39.8624 40.9886 41.9299C40.8596 43.9973 39.9149 45.929 38.3621 47.3C28.3871 56.1063 21.6558 64.9688 14.9683 76.5938C14.4562 77.4831 13.7739 78.2628 12.9604 78.8884C12.1469 79.514 11.2182 79.9733 10.2272 80.2399C9.2362 80.5066 8.20241 80.5755 7.18481 80.4426C6.16722 80.3098 5.18575 79.9778 4.29646 79.4656C3.40716 78.9535 2.62745 78.2712 2.00184 77.4577C1.37623 76.6442 0.916979 75.7155 0.650301 74.7245C0.383623 73.7335 0.314743 72.6997 0.447595 71.6821C0.580446 70.6645 0.912428 69.6831 1.42458 68.7938C8.77458 56.025 16.5246 45.7313 28.0246 35.5875C29.5779 34.2171 31.612 33.5196 33.6794 33.6486C35.7469 33.7775 37.6785 34.7222 39.0496 36.275ZM192.475 146.494C192.127 144.473 190.999 142.671 189.334 141.474C187.669 140.278 185.601 139.784 183.575 140.099C181.549 140.414 179.729 141.513 178.506 143.158C177.282 144.803 176.755 146.863 177.037 148.894C180.225 169.375 190.818 182.313 203.631 191.538C204.464 192.137 205.407 192.566 206.406 192.801C207.405 193.035 208.44 193.071 209.453 192.906C210.466 192.74 211.436 192.377 212.308 191.837C213.181 191.296 213.938 190.589 214.537 189.756C215.136 188.923 215.565 187.98 215.8 186.981C216.035 185.982 216.071 184.947 215.905 183.934C215.74 182.921 215.377 181.951 214.836 181.079C214.296 180.207 213.589 179.449 212.756 178.85C202.6 171.538 194.893 162.013 192.475 146.494ZM116.987 146.15C118.011 146.073 119.039 146.199 120.014 146.52C120.989 146.841 121.891 147.351 122.669 148.021C123.447 148.691 124.085 149.507 124.547 150.424C125.009 151.34 125.286 152.339 125.362 153.363C127.268 178.831 136.593 200.406 151.575 217.55C152.272 218.319 152.809 219.219 153.154 220.198C153.499 221.177 153.646 222.214 153.586 223.25C153.526 224.286 153.26 225.3 152.803 226.232C152.347 227.164 151.709 227.996 150.928 228.679C150.146 229.362 149.237 229.883 148.252 230.21C147.267 230.538 146.227 230.666 145.192 230.587C144.157 230.508 143.148 230.224 142.225 229.751C141.301 229.277 140.481 228.625 139.812 227.831C122.55 208.081 111.937 183.288 109.781 154.525C109.704 153.502 109.83 152.474 110.15 151.499C110.471 150.525 110.98 149.623 111.649 148.845C112.319 148.067 113.134 147.429 114.05 146.967C114.966 146.504 115.964 146.227 116.987 146.15ZM92.4746 54.9C93.4205 54.502 94.2787 53.9215 95.0003 53.1917C95.7219 52.462 96.2927 51.5972 96.6801 50.6469C97.0675 49.6965 97.2639 48.6792 97.2581 47.6529C97.2524 46.6267 97.0445 45.6116 96.6464 44.6657C96.2484 43.7197 95.6679 42.8615 94.9381 42.1399C94.2084 41.4183 93.3436 40.8475 92.3933 40.4601C91.4429 40.0727 90.4256 39.8763 89.3993 39.8821C88.3731 39.8879 87.358 40.0957 86.4121 40.4938C30.3371 64.075 2.38083 116.831 9.81208 179.85C9.93191 180.869 10.2513 181.854 10.7519 182.75C11.2526 183.646 11.9247 184.434 12.73 185.069C13.5352 185.705 14.4578 186.176 15.4451 186.455C16.4324 186.735 17.465 186.817 18.484 186.697C19.5029 186.577 20.4883 186.258 21.3839 185.757C22.2794 185.256 23.0676 184.584 23.7034 183.779C24.3392 182.974 24.8101 182.051 25.0894 181.064C25.3686 180.077 25.4507 179.044 25.3308 178.025C18.6246 121.15 43.4996 75.4938 92.4746 54.8875V54.9Z" fill="url(#paint0_linear_929_21126)"/>
<defs>
<linearGradient id="paint0_linear_929_21126" x1="228.476" y1="236.557" x2="-44.3454" y2="160.136" gradientUnits="userSpaceOnUse">
<stop stop-color="#9610FF"/>
<stop offset="1" stop-color="#AF48FF"/>
</linearGradient>
</defs>
</svg>
