<svg width="276" height="250" viewBox="0 0 276 250" fill="none" xmlns="http://www.w3.org/2000/svg">
<g clip-path="url(#clip0_1352_20753)">
<path d="M190.728 249.37H112.414C100.668 249.37 91.1113 239.824 91.1113 228.09V21.2801C91.1113 9.54629 100.668 0 112.414 0H190.728C202.474 0 212.03 9.54629 212.03 21.2801C213.488 104.329 215.974 197.33 212.03 228.09C212.03 239.824 202.474 249.37 190.728 249.37L190.728 249.37Z" fill="#3F3D56"/>
<path d="M213.122 76.0715C212.625 76.0715 212.221 76.4753 212.221 76.9718V105.78C212.221 106.276 212.625 106.68 213.122 106.68C213.619 106.68 214.023 106.276 214.023 105.78V76.9718C214.023 76.4753 213.619 76.0715 213.122 76.0715Z" fill="#3F3D56"/>
<path d="M210.002 21.2803V228.087C210.002 238.3 202.044 246.654 191.982 247.302H191.978C191.829 247.311 191.681 247.32 191.527 247.325C191.261 247.338 190.996 247.343 190.725 247.343C190.725 247.343 189.734 247.271 187.923 247.136C186.093 247.001 183.43 246.798 180.109 246.533C179.113 246.456 178.063 246.371 176.955 246.281C174.747 246.101 172.323 245.903 169.723 245.677C168.687 245.592 167.614 245.497 166.519 245.403C160.923 244.921 154.655 244.359 148.045 243.719C146.927 243.616 145.801 243.508 144.665 243.395C144.368 243.364 93.1387 230.499 93.1387 228.087V21.2803C93.1387 10.6439 101.768 2.02393 112.415 2.02393H123.923C125.762 2.02393 127.24 3.45532 127.398 5.28735C127.411 5.40889 127.425 5.5304 127.447 5.65195C127.781 7.49298 129.47 8.77583 131.345 8.77583H171.796C173.67 8.77583 175.36 7.49298 175.693 5.65195C175.716 5.53041 175.729 5.40889 175.743 5.28735C175.901 3.45533 177.379 2.02393 179.217 2.02393H190.725C201.373 2.02393 210.002 10.6439 210.002 21.2803H210.002Z" fill="#1F222A"/>
<path d="M90.661 54.4653C90.1639 54.4653 89.7598 54.8691 89.7598 55.3656V62.5676C89.7598 63.0641 90.1639 63.4679 90.661 63.4679C91.158 63.4679 91.5622 63.0641 91.5622 62.5676V55.3656C91.5622 54.8691 91.158 54.4653 90.661 54.4653Z" fill="#3F3D56"/>
<path d="M90.661 76.0714C90.1639 76.0714 89.7598 76.4752 89.7598 76.9717V90.9256C89.7598 91.4221 90.1639 91.8258 90.661 91.8258C91.158 91.8258 91.5622 91.4221 91.5622 90.9256V76.9717C91.5622 76.4752 91.158 76.0714 90.661 76.0714V76.0714Z" fill="#3F3D56"/>
<path d="M90.661 95.8771C90.1639 95.8771 89.7598 96.2808 89.7598 96.7773V110.731C89.7598 111.228 90.1639 111.632 90.661 111.632C91.158 111.632 91.5622 111.228 91.5622 110.731V96.7773C91.5622 96.2808 91.158 95.8771 90.661 95.8771Z" fill="#3F3D56"/>
<path d="M123.629 5.17651H106.359C106.275 5.17651 106.207 5.24429 106.207 5.3279V7.27576C106.207 7.35937 106.275 7.42715 106.359 7.42715H123.629C123.712 7.42715 123.78 7.35937 123.78 7.27576V5.3279C123.78 5.24429 123.712 5.17651 123.629 5.17651Z" fill="#35383F"/>
<path d="M182.066 7.42718C183.061 7.42718 183.868 6.62107 183.868 5.62668C183.868 4.63229 183.061 3.82617 182.066 3.82617C181.071 3.82617 180.264 4.63229 180.264 5.62668C180.264 6.62107 181.071 7.42718 182.066 7.42718Z" fill="#35383F"/>
<path d="M187.021 7.42718C188.017 7.42718 188.824 6.62107 188.824 5.62668C188.824 4.63229 188.017 3.82617 187.021 3.82617C186.026 3.82617 185.219 4.63229 185.219 5.62668C185.219 6.62107 186.026 7.42718 187.021 7.42718Z" fill="#35383F"/>
<path d="M191.978 7.42718C192.974 7.42718 193.781 6.62107 193.781 5.62668C193.781 4.63229 192.974 3.82617 191.978 3.82617C190.983 3.82617 190.176 4.63229 190.176 5.62668C190.176 6.62107 190.983 7.42718 191.978 7.42718Z" fill="#35383F"/>
<path d="M6.99219 249.419C6.99219 249.741 7.25111 250 7.57354 250H275.418C275.741 250 276 249.741 276 249.419C276 249.097 275.741 248.839 275.418 248.839H7.57354C7.25111 248.839 6.99219 249.097 6.99219 249.419Z" fill="#35383F"/>
<path d="M92.3946 245.605L86.902 245.605L84.2891 224.44L92.3957 224.441L92.3946 245.605Z" fill="#FFB6B6"/>
<path d="M73.5757 245.481C73.4047 245.768 73.3145 246.697 73.3145 247.032C73.3145 248.06 74.1491 248.894 75.1787 248.894H92.1888C92.8912 248.894 93.4606 248.325 93.4606 247.623V246.916C93.4606 246.916 94.3021 244.79 92.5697 242.169C92.5697 242.169 90.4165 244.221 87.199 241.007L86.2502 239.29L79.3822 244.308L75.5754 244.776C74.7426 244.878 74.0042 244.76 73.5758 245.481H73.5757V245.481H73.5757Z" fill="#2F2E41"/>
<path d="M62.0187 216.209L56.5261 216.191L53.9805 195.019L62.0871 195.045L62.0187 216.209Z" fill="#FFB6B6"/>
<path d="M43.1998 216.025C43.0279 216.312 42.9347 217.24 42.9336 217.575C42.9303 218.604 43.7623 219.44 44.7919 219.443L61.802 219.497C62.5043 219.499 63.0756 218.932 63.0778 218.231L63.0801 217.523C63.0801 217.523 63.9283 215.4 62.2042 212.774C62.2042 212.774 60.0445 214.819 56.8372 211.595L55.8939 209.875L49.01 214.87L45.2017 215.326C44.3686 215.426 43.6306 215.306 43.1999 216.025H43.1998V216.025Z" fill="#2F2E41"/>
<path d="M84.3825 117.12L77.5433 117.608C77.5433 117.608 54.3902 130.758 52.4362 133.686C50.4821 136.614 47.7953 140.762 50.2379 145.154C52.6804 149.546 50.8214 202.725 50.8214 202.725L62.4933 200.087L69.9715 144.448L85.6038 142.252C85.6038 142.252 90.9774 153.833 89.0233 163.414C87.0693 172.996 86.0923 178.852 86.0923 178.852L83.6497 235.459L93.1756 235.215L101.725 182.756L116.38 141.276L97.328 118.828L84.3825 117.12Z" fill="#2F2E41"/>
<path d="M52.8471 112.412C50.0658 113.929 48.5943 116.591 49.5602 118.359C50.5261 120.127 53.5638 120.331 56.3451 118.815C57.5626 118.151 58.529 117.268 59.15 116.336L70.8543 109.763L67.6496 104.342L56.4516 111.397C55.3311 111.415 54.0646 111.749 52.8471 112.412H52.8471Z" fill="#FFB6B6"/>
<path d="M118.089 57.0958L103.922 58.5598L102.456 63.4398L88.778 70.7598L93.1746 101.504L89.755 106.872L91.2205 112.24C91.2205 112.24 87.3125 112.728 87.801 115.656L79.0078 117.12C79.0078 117.12 90.6705 119.498 93.1438 131.241C95.6171 142.984 116.135 144.448 116.135 144.448L132.255 94.1837L133.721 64.4158L122.485 61.4878L118.089 57.0958Z" fill="#35383F"/>
<path d="M92.3168 70.9876C92.3168 70.9876 87.7287 69.2425 86.1479 71.3431C84.5671 73.4437 74.1243 98.9321 74.1243 98.9321L58.8027 106.926L63.1113 114.421L82.8409 107.859L95.858 84.077L92.3168 70.9876Z" fill="#35383F"/>
<path d="M236.999 154.695V206.423C236.999 210.997 233.274 214.719 228.694 214.719H100.705C96.1258 214.719 92.4004 210.997 92.4004 206.423V154.695C92.4004 150.12 96.1258 146.399 100.705 146.399H228.694C233.274 146.399 236.999 150.12 236.999 154.695Z" fill="#1F222A"/>
<path d="M236.999 154.695V206.423C236.999 210.997 233.274 214.719 228.694 214.719H100.705C96.1258 214.719 92.4004 210.997 92.4004 206.423V154.695C92.4004 150.12 96.1258 146.399 100.705 146.399H228.694C233.274 146.399 236.999 150.12 236.999 154.695ZM228.694 213.743C232.741 213.743 236.022 210.465 236.022 206.423V180.343C236.022 162.135 221.246 147.375 203.019 147.375H100.705C96.6581 147.375 93.3774 150.652 93.3774 154.695V206.423C93.3774 210.465 96.6581 213.743 100.705 213.743H228.694Z" fill="#3F3D56"/>
<path d="M149.855 177.651H133.137C132.716 177.651 132.373 177.993 132.373 178.414C132.373 178.835 132.716 179.178 133.137 179.178H149.855C150.276 179.178 150.619 178.835 150.619 178.414C150.619 177.993 150.276 177.651 149.855 177.651Z" fill="#9610FF"/>
<path d="M175.257 177.651H158.54C158.118 177.651 157.775 177.993 157.775 178.414C157.775 178.835 158.118 179.178 158.54 179.178H175.257C175.678 179.178 176.021 178.835 176.021 178.414C176.021 177.993 175.678 177.651 175.257 177.651Z" fill="#9610FF"/>
<path d="M149.855 185.999H133.137C132.716 185.999 132.373 186.341 132.373 186.762C132.373 187.183 132.716 187.526 133.137 187.526H149.855C150.276 187.526 150.619 187.183 150.619 186.762C150.619 186.341 150.276 185.999 149.855 185.999Z" fill="#9610FF"/>
<path d="M175.257 185.999H158.54C158.118 185.999 157.775 186.341 157.775 186.762C157.775 187.183 158.118 187.526 158.54 187.526H175.257C175.678 187.526 176.021 187.183 176.021 186.762C176.021 186.341 175.678 185.999 175.257 185.999Z" fill="#9610FF"/>
<path d="M201.423 186.762C201.423 186.341 201.081 185.999 200.659 185.999H183.942C183.521 185.999 183.178 186.341 183.178 186.762C183.178 187.183 183.521 187.526 183.942 187.526H200.659C201.081 187.526 201.423 187.183 201.423 186.762Z" fill="#9610FF"/>
<path d="M140.083 170.985C140.504 170.985 140.847 170.643 140.847 170.222C140.847 169.801 140.504 169.458 140.083 169.458H123.366C122.944 169.458 122.602 169.801 122.602 170.222C122.602 170.643 122.944 170.985 123.366 170.985H140.083Z" fill="#9610FF"/>
<path d="M189.315 170.675H206.032C206.454 170.675 206.796 170.332 206.796 169.911C206.796 169.49 206.454 169.148 206.032 169.148H189.315C188.894 169.148 188.551 169.49 188.551 169.911C188.551 170.332 188.894 170.675 189.315 170.675Z" fill="#9610FF"/>
<path d="M147.126 170.835H181.784C182.205 170.835 182.548 170.493 182.548 170.072C182.548 169.651 182.205 169.308 181.784 169.308H147.126C146.704 169.308 146.361 169.651 146.361 170.072C146.361 170.493 146.704 170.835 147.126 170.835Z" fill="#9610FF"/>
<path d="M160.763 193.583H144.046C143.624 193.583 143.281 193.925 143.281 194.346C143.281 194.767 143.624 195.11 144.046 195.11H160.763C161.184 195.11 161.527 194.767 161.527 194.346C161.527 193.925 161.184 193.583 160.763 193.583Z" fill="#9610FF"/>
<path d="M214.753 154.305V206.033C214.753 210.607 211.027 214.329 206.448 214.329H154.666C150.087 214.329 146.361 210.607 146.361 206.033V154.305C146.361 149.73 150.087 146.009 154.666 146.009H206.448C211.027 146.009 214.753 149.73 214.753 154.305Z" fill="#1F222A"/>
<path d="M214.753 154.305V206.033C214.753 210.607 211.027 214.329 206.448 214.329H154.666C150.087 214.329 146.361 210.607 146.361 206.033V154.305C146.361 149.73 150.087 146.009 154.666 146.009H206.448C211.027 146.009 214.753 149.73 214.753 154.305ZM203.236 213.353C209.057 213.353 213.776 208.639 213.776 202.824V179.953C213.776 161.745 199 146.985 180.772 146.985H154.666C150.619 146.985 147.338 150.262 147.338 154.305V198.815C147.338 206.844 153.854 213.353 161.891 213.353H203.236V213.353H203.236Z" fill="#3F3D56"/>
<path d="M187.45 167.135H170.733C170.312 167.135 169.969 166.793 169.969 166.372C169.969 165.951 170.312 165.608 170.733 165.608H187.45C187.872 165.608 188.214 165.951 188.214 166.372C188.214 166.793 187.872 167.135 187.45 167.135V167.135Z" fill="#9610FF"/>
<path d="M187.45 183.417H170.733C170.312 183.417 169.969 183.074 169.969 182.653C169.969 182.232 170.312 181.89 170.733 181.89H187.45C187.872 181.89 188.214 182.232 188.214 182.653C188.214 183.074 187.872 183.417 187.45 183.417V183.417Z" fill="#9610FF"/>
<path d="M179.146 205.865H162.428C162.007 205.865 161.664 205.522 161.664 205.101C161.664 204.68 162.007 204.338 162.428 204.338H179.146C179.567 204.338 179.91 204.68 179.91 205.101C179.91 205.522 179.567 205.865 179.146 205.865V205.865Z" fill="#9610FF"/>
<path d="M196.421 175.281H161.762C161.341 175.281 160.998 174.939 160.998 174.518C160.998 174.097 161.341 173.754 161.762 173.754H196.421C196.842 173.754 197.185 174.097 197.185 174.518C197.185 174.939 196.842 175.281 196.421 175.281V175.281Z" fill="#9610FF"/>
<path d="M205.011 125.641C205.011 109.504 191.358 100.627 175.762 96.4229C155.767 91.0324 141.123 101.94 146.513 125.641C147.735 131.013 150.657 137.286 154.274 142.653H182.976C192.563 136.417 205.011 138.166 205.011 125.641H205.011Z" fill="#9610FF"/>
<path d="M175.333 156.146C176.966 153.037 179.036 150.793 181.316 149.086H154.434C161.353 158.959 170.528 165.296 175.333 156.146Z" fill="#9610FF"/>
<path d="M172.23 108.366C173.956 108.366 175.355 109.764 175.355 111.488V117.731H169.105V111.488C169.105 109.764 170.504 108.366 172.23 108.366ZM176.918 117.731V111.488C176.918 108.902 174.819 106.805 172.23 106.805C169.641 106.805 167.543 108.902 167.543 111.488V117.731C165.817 117.731 164.418 119.129 164.418 120.853V128.657C164.418 130.381 165.817 131.778 167.543 131.778H176.918C178.643 131.778 180.042 130.381 180.042 128.657V120.853C180.042 119.129 178.643 117.731 176.918 117.731H176.918ZM167.543 119.292H176.918C177.78 119.292 178.48 119.991 178.48 120.853V128.657C178.48 129.519 177.78 130.218 176.918 130.218H167.543C166.68 130.218 165.98 129.519 165.98 128.657V120.853C165.98 119.991 166.68 119.292 167.543 119.292Z" fill="#1F222A"/>
<path d="M127.574 144.713C127.197 147.856 128.515 150.597 130.517 150.837C132.519 151.076 134.447 148.723 134.824 145.58C134.989 144.204 134.829 142.906 134.429 141.86L135.859 128.523L129.579 127.986L128.837 141.191C128.201 142.113 127.739 143.337 127.574 144.713Z" fill="#FFB6B6"/>
<path d="M28.5778 158.765C44.3608 158.765 57.1556 145.984 57.1556 130.217C57.1556 114.451 44.3608 101.67 28.5778 101.67C12.7947 101.67 0 114.451 0 130.217C0 145.984 12.7947 158.765 28.5778 158.765Z" fill="#9610FF"/>
<path d="M28.5777 117.437C30.5965 117.437 32.233 119.072 32.233 121.089V128.392H24.9224V121.089C24.9224 119.072 26.5589 117.437 28.5777 117.437ZM34.0607 128.392V121.089C34.0607 118.064 31.6059 115.612 28.5777 115.612C25.5496 115.612 23.0948 118.064 23.0948 121.089V128.392C21.076 128.392 19.4395 130.027 19.4395 132.043V141.172C19.4395 143.189 21.076 144.823 23.0948 144.823H34.0606C36.0794 144.823 37.7159 143.189 37.7159 141.172V132.043C37.7159 130.027 36.0794 128.392 34.0606 128.392H34.0607ZM23.0948 130.217H34.0606C35.07 130.217 35.8883 131.035 35.8883 132.043V141.172C35.8883 142.18 35.07 142.998 34.0606 142.998H23.0948C22.0854 142.998 21.2671 142.18 21.2671 141.172V132.043C21.2671 131.035 22.0854 130.217 23.0948 130.217Z" fill="#1F222A"/>
<path d="M129.081 65.1479C129.081 65.1479 135.92 63.1959 137.386 66.1239C138.851 69.0519 142.271 107.604 142.271 107.604L135.676 138.377L128.104 136.396L132.012 105.164L126.639 81.7398L129.081 65.1479Z" fill="#35383F"/>
<path d="M110.624 55.2441C116.707 55.2441 121.637 50.3186 121.637 44.2427C121.637 38.1667 116.707 33.2412 110.624 33.2412C104.542 33.2412 99.6113 38.1667 99.6113 44.2427C99.6113 50.3186 104.542 55.2441 110.624 55.2441Z" fill="#FFB6B6"/>
<path d="M104.899 54.1679C104.899 54.1679 95.129 53.6799 96.106 45.8719C93.6877 37.5573 95.8282 32.1587 103.434 30.2559C103.434 30.2559 105.388 29.7679 105.876 29.7679C112.301 29.7679 115.646 31.7199 115.646 31.7199C115.646 31.7199 115.158 29.7872 115.646 30.2656C116.135 30.7439 116.623 31.7199 116.623 31.7199C116.623 31.7199 121.508 34.1599 121.508 39.0399C121.508 43.9199 121.508 41.9679 121.508 41.9679C121.508 41.9679 120.531 41.9679 119.554 39.0399C118.577 36.1119 112.252 38.0639 112.252 38.0639L112.715 39.0399L111.25 38.5519L109.784 40.0159L108.807 39.5279C108.807 39.5279 104.899 39.5279 105.388 39.5279C105.876 39.5279 105.536 42.8443 105.536 42.8443L101.968 46.8479L105.876 54.1679H104.899Z" fill="#2F2E41"/>
</g>
<defs>
<clipPath id="clip0_1352_20753">
<rect width="276" height="250" fill="white"/>
</clipPath>
</defs>
</svg>
