<svg width="80" height="80" viewBox="0 0 80 80" fill="none" xmlns="http://www.w3.org/2000/svg">
<rect width="80" height="80" rx="40" fill="#9610FF" fill-opacity="0.08"/>
<path fill-rule="evenodd" clip-rule="evenodd" d="M45.5441 34.9771C45.5441 38.11 43.0465 40.6221 39.9317 40.6221C36.8169 40.6221 34.3193 38.11 34.3193 34.9771C34.3193 31.8429 36.8169 29.3333 39.9317 29.3333C43.0465 29.3333 45.5441 31.8429 45.5441 34.9771ZM39.9317 50.6666C35.3568 50.6666 31.4505 49.9413 31.4505 47.0401C31.4505 44.1378 35.3317 43.3861 39.9317 43.3861C44.5066 43.3861 48.413 44.1114 48.413 47.0137C48.413 49.9149 44.5317 50.6666 39.9317 50.6666ZM47.9425 35.0789C47.9425 36.676 47.4661 38.1638 46.6304 39.4006C46.5444 39.5279 46.6208 39.6996 46.7725 39.726C46.9814 39.762 47.1975 39.7825 47.4172 39.7885C49.6079 39.8461 51.5742 38.4279 52.1174 36.2929C52.9221 33.1216 50.5594 30.2744 47.5509 30.2744C47.2238 30.2744 46.911 30.3093 46.6065 30.3717C46.5647 30.3813 46.5206 30.4005 46.4967 30.4378C46.468 30.4834 46.4895 30.5446 46.5182 30.5843C47.4219 31.8583 47.9425 33.4122 47.9425 35.0789ZM51.5706 42.0167C53.0427 42.3061 54.0109 42.8969 54.412 43.7554C54.7511 44.4603 54.7511 45.2781 54.412 45.9817C53.7984 47.3134 51.8202 47.7409 51.0513 47.8514C50.8925 47.8754 50.7648 47.7373 50.7815 47.5776C51.1743 43.8875 48.0499 42.138 47.2417 41.7357C47.207 41.7177 47.1999 41.6901 47.2035 41.6732C47.2058 41.6612 47.2202 41.642 47.2464 41.6384C48.9955 41.606 50.8758 41.8462 51.5706 42.0167ZM32.5825 39.7883C32.8022 39.7823 33.0171 39.7631 33.2272 39.7259C33.3788 39.6995 33.4552 39.5278 33.3692 39.4005C32.5335 38.1636 32.0572 36.6758 32.0572 35.0788C32.0572 33.412 32.5777 31.8582 33.4815 30.5841C33.5101 30.5445 33.5304 30.4833 33.503 30.4376C33.4791 30.4016 33.4337 30.3812 33.3931 30.3716C33.0875 30.3091 32.7747 30.2743 32.4476 30.2743C29.439 30.2743 27.0764 33.1214 27.8822 36.2928C28.4254 38.4278 30.3917 39.846 32.5825 39.7883ZM32.7956 41.6725C32.7992 41.6905 32.792 41.717 32.7586 41.7362C31.9491 42.1384 28.8248 43.888 29.2176 47.5769C29.2343 47.7378 29.1077 47.8747 28.9489 47.8519C28.1801 47.7414 26.2018 47.3139 25.5882 45.9822C25.2479 45.2774 25.2479 44.4608 25.5882 43.7559C25.9893 42.8974 26.9564 42.3066 28.4284 42.016C29.1244 41.8466 31.0036 41.6065 32.7538 41.6389C32.7801 41.6425 32.7932 41.6617 32.7956 41.6725Z" fill="url(#paint0_linear_1338_16781)"/>
<defs>
<linearGradient id="paint0_linear_1338_16781" x1="54.6663" y1="50.6666" x2="22.0172" y2="37.6504" gradientUnits="userSpaceOnUse">
<stop stop-color="#9610FF"/>
<stop offset="1" stop-color="#AF48FF"/>
</linearGradient>
</defs>
</svg>