<svg width="56" height="56" viewBox="0 0 56 56" fill="none" xmlns="http://www.w3.org/2000/svg">
<rect width="56" height="56" rx="28" fill="#EEEDFE"/>
<path fill-rule="evenodd" clip-rule="evenodd" d="M23.6662 37.9998H32.3328C35.7231 37.9998 38 35.6216 38 32.083V23.9165C38 20.3779 35.7231 17.9998 32.3338 17.9998H23.6662C20.2769 17.9998 18 20.3779 18 23.9165V32.083C18 35.6216 20.2769 37.9998 23.6662 37.9998ZM24.4994 26.9997C23.1207 26.9997 22.0005 25.878 22.0005 24.4997C22.0005 23.1214 23.1207 21.9997 24.4994 21.9997C25.877 21.9997 26.9983 23.1214 26.9983 24.4997C26.9983 25.878 25.877 26.9997 24.4994 26.9997ZM35.821 30.9337C36.1558 31.7923 35.9819 32.8243 35.6239 33.6747C35.1995 34.6861 34.387 35.4518 33.3634 35.7862C32.9088 35.9348 32.4322 35.9998 31.9566 35.9998H23.5288C22.6902 35.9998 21.9481 35.7985 21.3397 35.4239C20.9586 35.1886 20.8912 34.6458 21.1738 34.2939C21.6464 33.7057 22.113 33.1154 22.5836 32.5199C23.4806 31.3806 24.0849 31.0503 24.7566 31.3403C25.0291 31.46 25.3027 31.6396 25.5842 31.8295C26.3344 32.3393 27.3772 33.04 28.7508 32.2795C29.6908 31.753 30.236 30.8499 30.7108 30.0635L30.7187 30.0503C30.7523 29.9952 30.7857 29.94 30.8189 29.885L30.8189 29.885C30.9785 29.621 31.1359 29.3605 31.314 29.1205C31.5372 28.8202 32.3648 27.8811 33.4368 28.5498C34.1196 28.9709 34.6937 29.5405 35.3081 30.1505C35.5424 30.3837 35.7094 30.6489 35.821 30.9337Z" fill="url(#paint0_linear_1435_18795)"/>
<defs>
<linearGradient id="paint0_linear_1435_18795" x1="38" y1="37.9998" x2="14.2018" y2="31.0997" gradientUnits="userSpaceOnUse">
<stop stop-color="#584CF4"/>
<stop offset="1" stop-color="#7369F8"/>
</linearGradient>
</defs>
</svg>
