<svg width="20" height="20"  viewBox="0 0 25 24" fill="none" xmlns="http://www.w3.org/2000/svg">
<mask id="mask0_1628_11837" style="mask-type:luminance" maskUnits="userSpaceOnUse" x="0" y="0" width="25" height="24">
<path fill-rule="evenodd" clip-rule="evenodd" d="M0.333008 0.499883H24.2176V23.251H0.333008V0.499883Z" fill="white"/>
</mask>
<g mask="url(#mask0_1628_11837)">
<path fill-rule="evenodd" clip-rule="evenodd" d="M2.46096 11.1435C4.09662 16.2325 10.5588 20.3473 12.2761 21.3658C13.9993 20.3368 20.5081 16.1765 22.0913 11.1482C23.1308 7.89783 22.166 3.78067 18.3323 2.54517C16.475 1.949 14.3085 2.31183 12.8128 3.46917C12.5001 3.7095 12.0661 3.71417 11.7511 3.47617C10.1668 2.285 8.09712 1.93617 6.21062 2.54517C2.38279 3.7795 1.42146 7.89667 2.46096 11.1435ZM12.2773 23.2512C12.1326 23.2512 11.9891 23.2162 11.8585 23.145C11.4933 22.9455 2.89146 18.2042 0.794957 11.6778C0.793791 11.6778 0.793791 11.6767 0.793791 11.6767C-0.522209 7.56767 0.943124 2.404 5.67396 0.879166C7.89529 0.1605 10.3161 0.476666 12.2738 1.71217C14.1708 0.512833 16.6908 0.1815 18.8678 0.879166C23.6033 2.40633 25.0733 7.56883 23.7585 11.6767C21.7296 18.1283 13.0648 22.9408 12.6973 23.1427C12.5666 23.215 12.422 23.2512 12.2773 23.2512Z" fill="#584CF4"/>
</g>
</svg>