<svg width="21" height="22" viewBox="0 0 21 22" fill="none" xmlns="http://www.w3.org/2000/svg">
<path d="M7.55761 19.7714V16.7047C7.55759 15.9246 8.19351 15.2908 8.9814 15.2856H11.8675C12.6591 15.2856 13.3009 15.9209 13.3009 16.7047V16.7047V19.7809C13.3007 20.4432 13.8346 20.9845 14.5034 21H16.4275C18.3455 21 19.9004 19.4607 19.9004 17.5618V17.5618V8.83784C19.8901 8.09083 19.5359 7.38935 18.9384 6.93303L12.3581 1.6853C11.2053 0.771566 9.5666 0.771566 8.41381 1.6853L1.86242 6.94256C1.26265 7.39702 0.907777 8.09967 0.900391 8.84736V17.5618C0.900391 19.4607 2.45527 21 4.3733 21H6.29735C6.98275 21 7.53837 20.4499 7.53837 19.7714V19.7714" stroke="#9E9E9E" stroke-width="1.5" stroke-linecap="round" stroke-linejoin="round"/>
</svg>
