<svg width="20" height="20" viewBox="0 0 20 20" fill="none" xmlns="http://www.w3.org/2000/svg">
<path d="M6.93556 18.7733V15.7156C6.93556 14.9351 7.57295 14.3023 8.35922 14.3023H11.2334C11.611 14.3023 11.9731 14.4512 12.2401 14.7163C12.5071 14.9813 12.657 15.3408 12.657 15.7156V18.7733C12.6547 19.0978 12.7828 19.4099 13.0132 19.6402C13.2435 19.8705 13.5568 20 13.8837 20H15.8446C16.7604 20.0023 17.6395 19.6428 18.288 19.0008C18.9364 18.3588 19.3008 17.487 19.3008 16.5778V7.86686C19.3008 7.13246 18.9729 6.43584 18.4054 5.96467L11.7348 0.675869C10.5744 -0.251438 8.91189 -0.221498 7.78617 0.746979L1.26779 5.96467C0.673522 6.42195 0.318334 7.12064 0.300781 7.86686V16.5689C0.300781 18.4639 1.84816 20 3.75695 20H5.67307C6.35201 20 6.90378 19.4562 6.9087 18.7822L6.93556 18.7733Z" fill="#9610FF"/>
</svg>