<svg width="22" height="22" viewBox="0 0 22 22" fill="none" xmlns="http://www.w3.org/2000/svg">
<path d="M7.958 19.7714V16.7047C7.95798 15.9246 8.5939 15.2908 9.38179 15.2856H12.2679C13.0595 15.2856 13.7013 15.9209 13.7013 16.7047V16.7047V19.7809C13.7011 20.4432 14.235 20.9845 14.9038 21H16.8279C18.7459 21 20.3008 19.4607 20.3008 17.5618V17.5618V8.83784C20.2905 8.09083 19.9363 7.38935 19.3388 6.93303L12.7585 1.6853C11.6057 0.771566 9.96699 0.771566 8.8142 1.6853L2.26281 6.94256C1.66304 7.39702 1.30817 8.09967 1.30078 8.84736V17.5618C1.30078 19.4607 2.85566 21 4.77369 21H6.69774C7.38314 21 7.93876 20.4499 7.93876 19.7714V19.7714" stroke="#9E9E9E" stroke-width="1.5" stroke-linecap="round" stroke-linejoin="round"/>
</svg>