<svg width="20" height="20" viewBox="0 0 20 20" fill="none" xmlns="http://www.w3.org/2000/svg">
<path fill-rule="evenodd" clip-rule="evenodd" d="M3.78366 1.66669H6.60033C7.77533 1.66669 8.71699 2.62502 8.71699 3.80085V6.64169C8.71699 7.82502 7.77533 8.77502 6.60033 8.77502H3.78366C2.61699 8.77502 1.66699 7.82502 1.66699 6.64169V3.80085C1.66699 2.62502 2.61699 1.66669 3.78366 1.66669ZM3.78366 11.2248H6.60033C7.77533 11.2248 8.71699 12.1756 8.71699 13.3589V16.1998C8.71699 17.3748 7.77533 18.3331 6.60033 18.3331H3.78366C2.61699 18.3331 1.66699 17.3748 1.66699 16.1998V13.3589C1.66699 12.1756 2.61699 11.2248 3.78366 11.2248ZM16.2171 1.66669H13.4004C12.2254 1.66669 11.2837 2.62502 11.2837 3.80085V6.64169C11.2837 7.82502 12.2254 8.77502 13.4004 8.77502H16.2171C17.3837 8.77502 18.3337 7.82502 18.3337 6.64169V3.80085C18.3337 2.62502 17.3837 1.66669 16.2171 1.66669ZM13.4004 11.2248H16.2171C17.3837 11.2248 18.3337 12.1756 18.3337 13.3589V16.1998C18.3337 17.3748 17.3837 18.3331 16.2171 18.3331H13.4004C12.2254 18.3331 11.2837 17.3748 11.2837 16.1998V13.3589C11.2837 12.1756 12.2254 11.2248 13.4004 11.2248Z" fill="#584CF4"/>
</svg>