<svg width="40" height="41" viewBox="0 0 40 41" fill="none" xmlns="http://www.w3.org/2000/svg">
<path fill-rule="evenodd" clip-rule="evenodd" d="M26.4154 4.76971C27.4671 4.76971 28.5171 4.91804 29.5154 5.25304C35.6671 7.25304 37.8837 14.003 36.0321 19.903C34.9821 22.918 33.2654 25.6697 31.0171 27.918C27.7987 31.0347 24.2671 33.8014 20.4654 36.1847L20.0487 36.4364L19.6154 36.168C15.8004 33.8014 12.2487 31.0347 9.00039 27.9014C6.76706 25.653 5.04873 22.918 3.98206 19.903C2.09873 14.003 4.31539 7.25304 10.5337 5.21804C11.0171 5.05137 11.5154 4.93471 12.0154 4.86971H12.2154C12.6837 4.80137 13.1487 4.76971 13.6154 4.76971H13.7987C14.8487 4.80137 15.8654 4.98471 16.8504 5.31971H16.9487C17.0154 5.35137 17.0654 5.38637 17.0987 5.41804C17.4671 5.53637 17.8154 5.66971 18.1487 5.85304L18.7821 6.13637C18.9351 6.21799 19.1069 6.3427 19.2553 6.45049C19.3494 6.51878 19.4341 6.58027 19.4987 6.61971C19.5259 6.63575 19.5536 6.65189 19.5814 6.66816C19.7243 6.75158 19.8732 6.83847 19.9987 6.93471C21.8504 5.51971 24.0987 4.75304 26.4154 4.76971ZM30.8487 16.7697C31.5321 16.7514 32.1154 16.203 32.1654 15.5014V15.303C32.2154 12.968 30.8004 10.853 28.6487 10.0364C27.9654 9.80137 27.2154 10.1697 26.9654 10.8697C26.7321 11.5697 27.0987 12.3364 27.7987 12.5847C28.8671 12.9847 29.5821 14.0364 29.5821 15.2014V15.253C29.5504 15.6347 29.6654 16.003 29.8987 16.2864C30.1321 16.5697 30.4821 16.7347 30.8487 16.7697Z" fill="url(#paint0_linear_1761_10363)"/>
<defs>
<linearGradient id="paint0_linear_1761_10363" x1="36.6657" y1="36.4364" x2="-2.66883" y2="24.4314" gradientUnits="userSpaceOnUse">
<stop stop-color="#FF4D67"/>
<stop offset="1" stop-color="#FF8A9B"/>
</linearGradient>
</defs>
</svg>
