<svg width="60" height="60" viewBox="0 0 60 60" fill="none" xmlns="http://www.w3.org/2000/svg">
<rect width="60" height="60" rx="30" fill="#584CF4" fill-opacity="0.08"/>
<path fill-rule="evenodd" clip-rule="evenodd" d="M20.083 28.0373C20.083 22.6708 24.5675 18.3333 29.992 18.3333C35.4318 18.3333 39.9163 22.6708 39.9163 28.0373C39.9163 30.7416 38.9328 33.2522 37.3141 35.3801C35.5283 37.7274 33.3272 39.7725 30.8496 41.3777C30.2826 41.7487 29.7709 41.7767 29.1485 41.3777C26.6569 39.7725 24.4558 37.7274 22.6853 35.3801C21.0653 33.2522 20.083 30.7416 20.083 28.0373ZM26.7263 28.3395C26.7263 30.1372 28.1933 31.5512 29.992 31.5512C31.792 31.5512 33.2731 30.1372 33.2731 28.3395C33.2731 26.5557 31.792 25.0729 29.992 25.0729C28.1933 25.0729 26.7263 26.5557 26.7263 28.3395Z" fill="url(#paint0_linear_1448_27839)"/>
<defs>
<linearGradient id="paint0_linear_1448_27839" x1="39.9163" y1="41.6666" x2="15.7974" y2="35.7225" gradientUnits="userSpaceOnUse">
<stop stop-color="#584CF4"/>
<stop offset="1" stop-color="#7369F8"/>
</linearGradient>
</defs>
</svg>
