<svg width="60" height="60" viewBox="0 0 60 60" fill="none" xmlns="http://www.w3.org/2000/svg">
<rect width="60" height="60" rx="30" fill="#584CF4" fill-opacity="0.08"/>
<path fill-rule="evenodd" clip-rule="evenodd" d="M41.4181 28.2956C41.2602 28.4491 41.0458 28.5368 40.8201 28.5368C39.9852 28.5368 39.3082 29.1944 39.3082 29.9946C39.3082 30.8002 39.9773 31.4546 40.8043 31.4634C41.2703 31.4678 41.6663 31.7834 41.6663 32.2361V35.0476C41.6663 37.4141 39.6918 39.3334 37.2547 39.3334H33.5764C33.1962 39.3334 32.8881 39.0342 32.8881 38.6648V36.2972C32.8881 35.8368 32.5158 35.4751 32.0419 35.4751C31.5793 35.4751 31.1957 35.8368 31.1957 36.2972V38.6648C31.1957 39.0342 30.8876 39.3334 30.5085 39.3334H22.7447C20.3188 39.3334 18.333 37.4152 18.333 35.0476V32.2361C18.333 31.7834 18.729 31.4678 19.195 31.4634C20.0232 31.4546 20.6912 30.8002 20.6912 29.9946C20.6912 29.2164 20.0367 28.6245 19.1792 28.6245C18.9536 28.6245 18.7392 28.5368 18.5812 28.3833C18.4233 28.2299 18.333 28.0216 18.333 27.8024V24.9635C18.333 22.6003 20.3233 20.6667 22.756 20.6667H30.5085C30.8876 20.6667 31.1957 20.966 31.1957 21.3354V24.1414C31.1957 24.5908 31.5793 24.9635 32.0419 24.9635C32.5158 24.9635 32.8881 24.5908 32.8881 24.1414V21.3354C32.8881 20.966 33.1962 20.6667 33.5764 20.6667H37.2547C39.6918 20.6667 41.6663 22.5849 41.6663 24.9525V27.7147C41.6663 27.9339 41.5761 28.1422 41.4181 28.2956ZM32.0419 33.3487C32.5158 33.3487 32.8881 32.976 32.8881 32.5266V28.1422C32.8881 27.6928 32.5158 27.3201 32.0419 27.3201C31.5793 27.3201 31.1957 27.6928 31.1957 28.1422V32.5266C31.1957 32.976 31.5793 33.3487 32.0419 33.3487Z" fill="url(#paint0_linear_1448_27920)"/>
<defs>
<linearGradient id="paint0_linear_1448_27920" x1="41.6663" y1="39.3334" x2="15.0622" y2="29.6914" gradientUnits="userSpaceOnUse">
<stop stop-color="#584CF4"/>
<stop offset="1" stop-color="#7369F8"/>
</linearGradient>
</defs>
</svg>
