<svg width="16" height="16" viewBox="0 0 16 16" fill="none" xmlns="http://www.w3.org/2000/svg">
<path fill-rule="evenodd" clip-rule="evenodd" d="M2.33301 6.87855C2.33301 3.81197 4.8956 1.33337 7.99531 1.33337C11.1038 1.33337 13.6663 3.81197 13.6663 6.87855C13.6663 8.42383 13.1043 9.85846 12.1793 11.0744C11.1589 12.4157 9.90111 13.5844 8.48537 14.5017C8.16135 14.7137 7.86892 14.7297 7.51331 14.5017C6.0895 13.5844 4.83173 12.4157 3.82001 11.0744C2.89433 9.85846 2.33301 8.42383 2.33301 6.87855ZM6.12916 7.05121C6.12916 8.07851 6.96745 8.88649 7.9953 8.88649C9.02384 8.88649 9.87019 8.07851 9.87019 7.05121C9.87019 6.0319 9.02384 5.1846 7.9953 5.1846C6.96745 5.1846 6.12916 6.0319 6.12916 7.05121Z" fill="url(#paint0_linear_1345_17499)"/>
<defs>
<linearGradient id="paint0_linear_1345_17499" x1="13.6663" y1="14.6667" x2="-0.115891" y2="11.2701" gradientUnits="userSpaceOnUse">
<stop stop-color="#9610FF"/>
<stop offset="1" stop-color="#AF48FF"/>
</linearGradient>
</defs>
</svg>