<svg width="186" height="180" viewBox="0 0 186 180" fill="none" xmlns="http://www.w3.org/2000/svg">
<circle cx="95.5" cy="90.5" r="70.5" fill="url(#paint0_linear_1661_9094)"/>
<circle cx="178.467" cy="27.5" r="7.5" fill="#C070FF"/>
<circle cx="20.0332" cy="10" r="10" fill="#C070FF"/>
<circle cx="10.0332" cy="133" r="5" fill="#C070FF"/>
<circle cx="165.533" cy="160.5" r="2.5" fill="#C070FF"/>
<path fill-rule="evenodd" clip-rule="evenodd" d="M94.8309 114.871C95.1032 115.013 95.4076 115.086 95.712 115.083C96.0164 115.081 96.3183 115.006 96.593 114.861L105.364 110.173C107.851 108.847 109.799 107.364 111.319 105.638C114.623 101.878 116.427 97.078 116.395 92.1289L116.291 75.804C116.281 73.9237 115.046 72.2459 113.219 71.636L96.9024 66.1614C95.9199 65.8287 94.8433 65.8359 93.8781 66.1783L77.623 71.8481C75.8064 72.4821 74.5937 74.172 74.6036 76.0547L74.7075 92.3676C74.7397 97.3239 76.6058 102.102 79.9642 105.824C81.4986 107.526 83.4637 108.987 85.9782 110.291L94.8309 114.871ZM92.509 95.6844C92.8753 96.0364 93.3505 96.2099 93.8256 96.2051C94.3008 96.2027 94.7735 96.0243 95.1349 95.6675L104.72 86.2178C105.44 85.5066 105.433 84.364 104.705 83.6625C103.975 82.961 102.8 82.9658 102.079 83.677L93.7984 91.8394L90.4078 88.5802C89.6777 87.8787 88.5046 87.886 87.7819 88.5971C87.0618 89.3082 87.0692 90.4509 87.7993 91.1524L92.509 95.6844Z" fill="white"/>
<circle cx="106.533" cy="4.5" r="2.5" fill="#C070FF"/>
<circle cx="62.5332" cy="176.5" r="3.5" fill="#C070FF"/>
<circle cx="122.033" cy="171" r="1" fill="#C070FF"/>
<circle cx="170.533" cy="110.5" r="2.5" fill="#C070FF"/>
<circle cx="1.0332" cy="75" r="1" fill="#C070FF"/>
<defs>
<linearGradient id="paint0_linear_1661_9094" x1="166" y1="161" x2="-1.77734" y2="112.355" gradientUnits="userSpaceOnUse">
<stop stop-color="#9610FF"/>
<stop offset="1" stop-color="#AF48FF"/>
</linearGradient>
</defs>
</svg>