<svg width="186" height="180" viewBox="0 0 186 180" fill="none" xmlns="http://www.w3.org/2000/svg">
<circle cx="95.5" cy="90.5" r="70.5" fill="url(#paint0_linear_1583_12139)"/>
<circle cx="178.467" cy="27.5" r="7.5" fill="#9B94F8"/>
<circle cx="20.0332" cy="10" r="10" fill="#9B94F8"/>
<circle cx="10.0332" cy="133" r="5" fill="#9B94F8"/>
<circle cx="165.533" cy="160.5" r="2.5" fill="#9B94F8"/>
<path fill-rule="evenodd" clip-rule="evenodd" d="M94.8319 114.871C95.1041 115.013 95.4085 115.086 95.713 115.083C96.0174 115.081 96.3193 115.006 96.594 114.861L105.365 110.173C107.852 108.847 109.8 107.364 111.32 105.638C114.624 101.878 116.428 97.078 116.396 92.1289L116.292 75.804C116.282 73.9237 115.047 72.2459 113.22 71.636L96.9034 66.1614C95.9208 65.8287 94.8443 65.8359 93.8791 66.1783L77.6239 71.8481C75.8074 72.4821 74.5947 74.172 74.6046 76.0547L74.7085 92.3676C74.7407 97.3239 76.6067 102.102 79.9652 105.824C81.4996 107.526 83.4647 108.987 85.9792 110.291L94.8319 114.871ZM92.51 95.6844C92.8763 96.0364 93.3514 96.2099 93.8266 96.2051C94.3018 96.2027 94.7745 96.0243 95.1358 95.6675L104.721 86.2178C105.441 85.5066 105.434 84.364 104.706 83.6625C103.976 82.961 102.801 82.9658 102.08 83.677L93.7994 91.8394L90.4088 88.5802C89.6787 87.8787 88.5056 87.886 87.7829 88.5971C87.0627 89.3082 87.0702 90.4509 87.8002 91.1524L92.51 95.6844Z" fill="white"/>
<circle cx="106.533" cy="4.5" r="2.5" fill="#9B94F8"/>
<circle cx="62.5332" cy="176.5" r="3.5" fill="#9B94F8"/>
<circle cx="122.033" cy="171" r="1" fill="#9B94F8"/>
<circle cx="170.533" cy="110.5" r="2.5" fill="#9B94F8"/>
<circle cx="1.0332" cy="75" r="1" fill="#9B94F8"/>
<defs>
<linearGradient id="paint0_linear_1583_12139" x1="166" y1="161" x2="-1.77734" y2="112.355" gradientUnits="userSpaceOnUse">
<stop stop-color="#584CF4"/>
<stop offset="1" stop-color="#7369F8"/>
</linearGradient>
</defs>
</svg>