<svg width="40" height="41" viewBox="0 0 40 41" fill="none" xmlns="http://www.w3.org/2000/svg">
<g clip-path="url(#clip0_1761_10359)">
<path d="M30.4992 10.1185C29.8492 9.46855 28.7992 9.46855 28.1492 10.1185L19.9992 18.2519L11.8492 10.1019C11.1992 9.45188 10.1492 9.45188 9.49922 10.1019C8.84922 10.7519 8.84922 11.8019 9.49922 12.4519L17.6492 20.6019L9.49922 28.7519C8.84922 29.4019 8.84922 30.4519 9.49922 31.1019C10.1492 31.7519 11.1992 31.7519 11.8492 31.1019L19.9992 22.9519L28.1492 31.1019C28.7992 31.7519 29.8492 31.7519 30.4992 31.1019C31.1492 30.4519 31.1492 29.4019 30.4992 28.7519L22.3492 20.6019L30.4992 12.4519C31.1325 11.8185 31.1325 10.7519 30.4992 10.1185Z" fill="#F54336"/>
</g>
<defs>
<clipPath id="clip0_1761_10359">
<rect width="40" height="40" fill="white" transform="translate(0 0.601868)"/>
</clipPath>
</defs>
</svg>
