<svg width="48" height="48" viewBox="0 0 48 48" fill="none" xmlns="http://www.w3.org/2000/svg">
<rect width="48" height="48" rx="24" fill="url(#paint0_linear_1349_27396)"/>
<path fill-rule="evenodd" clip-rule="evenodd" d="M30.7071 20.7963C30.7071 22.0523 31.039 22.7925 31.7695 23.6456C32.3231 24.2741 32.5 25.0808 32.5 25.956C32.5 26.8302 32.2128 27.6601 31.6373 28.3339C30.884 29.1417 29.8215 29.6573 28.7372 29.747C27.1659 29.8809 25.5937 29.9937 24.0005 29.9937C22.4063 29.9937 20.835 29.9263 19.2638 29.747C18.1785 29.6573 17.116 29.1417 16.3637 28.3339C15.7882 27.6601 15.5 26.8302 15.5 25.956C15.5 25.0808 15.6779 24.2741 16.2305 23.6456C16.9838 22.7925 17.2939 22.0523 17.2939 20.7963V20.3703C17.2939 18.6883 17.7133 17.5885 18.577 16.5119C19.8611 14.9417 21.9194 14 23.9558 14H24.0452C26.1254 14 28.2502 14.987 29.5125 16.6247C30.3314 17.6792 30.7071 18.7327 30.7071 20.3703V20.7963ZM21.0737 32.0608C21.0737 31.5573 21.5358 31.3266 21.9632 31.2279C22.4631 31.1222 25.5093 31.1222 26.0092 31.2279C26.4366 31.3266 26.8987 31.5573 26.8987 32.0608C26.8738 32.5402 26.5926 32.9653 26.204 33.2352C25.7001 33.628 25.1088 33.8767 24.4906 33.9664C24.1487 34.0107 23.8128 34.0117 23.4828 33.9664C22.8636 33.8767 22.2723 33.628 21.7694 33.2342C21.3798 32.9653 21.0985 32.5402 21.0737 32.0608Z" fill="white"/>
<defs>
<linearGradient id="paint0_linear_1349_27396" x1="48" y1="48" x2="-9.11569" y2="31.4398" gradientUnits="userSpaceOnUse">
<stop stop-color="#FF4D67"/>
<stop offset="1" stop-color="#FF8A9B"/>
</linearGradient>
</defs>
</svg>
