<svg width="150" height="150" viewBox="0 0 186 180" fill="none" xmlns="http://www.w3.org/2000/svg">
<circle cx="95.5" cy="90.5" r="70.5" fill="white"/>
<circle cx="178.467" cy="27.5" r="7.5" fill="white"/>
<circle cx="20.0332" cy="10" r="10" fill="white"/>
<circle cx="10.0332" cy="133" r="5" fill="white"/>
<circle cx="165.533" cy="160.5" r="2.5" fill="white"/>
<path fill-rule="evenodd" clip-rule="evenodd" d="M100.714 88.6146H107.518C108.55 88.6146 109.361 87.7616 109.361 86.733C109.361 85.6794 108.55 84.8515 107.518 84.8515H100.714C99.6825 84.8515 98.8719 85.6794 98.8719 86.733C98.8719 87.7616 99.6825 88.6146 100.714 88.6146ZM115.6 75.5716C117.099 75.5716 118.081 76.0984 119.064 77.2525C120.046 78.4065 120.218 80.0623 119.997 81.565L117.663 98.0224C117.221 101.186 114.568 103.517 111.449 103.517H84.6492C81.3822 103.517 78.6801 100.96 78.4099 97.6486L76.15 70.3007L72.4408 69.6484C71.4583 69.4728 70.7705 68.4944 70.9424 67.4909C71.1144 66.4648 72.0724 65.785 73.0795 65.938L78.938 66.8386C79.7732 66.9917 80.3873 67.6916 80.461 68.5446L80.9277 74.1642C81.0014 74.9695 81.6401 75.5716 82.4262 75.5716H115.6ZM84.2557 107.482C82.1923 107.482 80.5219 109.188 80.5219 111.295C80.5219 113.377 82.1923 115.083 84.2557 115.083C86.2945 115.083 87.9649 113.377 87.9649 111.295C87.9649 109.188 86.2945 107.482 84.2557 107.482ZM111.89 107.482C109.827 107.482 108.157 109.188 108.157 111.295C108.157 113.377 109.827 115.083 111.89 115.083C113.929 115.083 115.6 113.377 115.6 111.295C115.6 109.188 113.929 107.482 111.89 107.482Z" fill="#35383F"/>
<circle cx="106.533" cy="4.5" r="2.5" fill="white"/>
<circle cx="62.5332" cy="176.5" r="3.5" fill="white"/>
<circle cx="122.033" cy="171" r="1" fill="white"/>
<circle cx="170.533" cy="110.5" r="2.5" fill="white"/>
<circle cx="1.0332" cy="75" r="1" fill="white"/>
</svg>