<svg width="150" height="150" viewBox="0 0 186 180" fill="none" xmlns="http://www.w3.org/2000/svg">
<circle cx="95.5" cy="90.5" r="70.5" fill="url(#paint0_linear_1672_15588)"/>
<circle cx="178.467" cy="27.5" r="7.5" fill="url(#paint1_linear_1672_15588)"/>
<circle cx="20.0332" cy="10" r="10" fill="url(#paint2_linear_1672_15588)"/>
<circle cx="10.0332" cy="133" r="5" fill="url(#paint3_linear_1672_15588)"/>
<circle cx="165.533" cy="160.5" r="2.5" fill="url(#paint4_linear_1672_15588)"/>
<path fill-rule="evenodd" clip-rule="evenodd" d="M100.715 88.6146H107.519C108.551 88.6146 109.362 87.7616 109.362 86.733C109.362 85.6794 108.551 84.8515 107.519 84.8515H100.715C99.6835 84.8515 98.8729 85.6794 98.8729 86.733C98.8729 87.7616 99.6835 88.6146 100.715 88.6146ZM115.601 75.5716C117.099 75.5716 118.082 76.0984 119.065 77.2525C120.047 78.4065 120.219 80.0623 119.998 81.565L117.664 98.0224C117.222 101.186 114.569 103.517 111.45 103.517H84.6502C81.3832 103.517 78.6811 100.96 78.4109 97.6486L76.151 70.3007L72.4418 69.6484C71.4592 69.4728 70.7714 68.4944 70.9434 67.4909C71.1153 66.4648 72.0733 65.785 73.0805 65.938L78.939 66.8386C79.7742 66.9917 80.3883 67.6916 80.462 68.5446L80.9287 74.1642C81.0024 74.9695 81.6411 75.5716 82.4271 75.5716H115.601ZM84.2567 107.482C82.1933 107.482 80.5229 109.188 80.5229 111.295C80.5229 113.377 82.1933 115.083 84.2567 115.083C86.2955 115.083 87.9659 113.377 87.9659 111.295C87.9659 109.188 86.2955 107.482 84.2567 107.482ZM111.891 107.482C109.828 107.482 108.158 109.188 108.158 111.295C108.158 113.377 109.828 115.083 111.891 115.083C113.93 115.083 115.601 113.377 115.601 111.295C115.601 109.188 113.93 107.482 111.891 107.482Z" fill="white"/>
<circle cx="106.533" cy="4.5" r="2.5" fill="url(#paint5_linear_1672_15588)"/>
<circle cx="62.5332" cy="176.5" r="3.5" fill="url(#paint6_linear_1672_15588)"/>
<circle cx="122.033" cy="171" r="1" fill="url(#paint7_linear_1672_15588)"/>
<circle cx="170.533" cy="110.5" r="2.5" fill="url(#paint8_linear_1672_15588)"/>
<circle cx="1.0332" cy="75" r="1" fill="url(#paint9_linear_1672_15588)"/>
<defs>
<linearGradient id="paint0_linear_1672_15588" x1="166" y1="161" x2="-1.77734" y2="112.355" gradientUnits="userSpaceOnUse">
<stop stop-color="#101010"/>
<stop offset="1" stop-color="#313130"/>
</linearGradient>
<linearGradient id="paint1_linear_1672_15588" x1="185.967" y1="35" x2="168.118" y2="29.8249" gradientUnits="userSpaceOnUse">
<stop stop-color="#101010"/>
<stop offset="1" stop-color="#313130"/>
</linearGradient>
<linearGradient id="paint2_linear_1672_15588" x1="30.0332" y1="20" x2="6.235" y2="13.0999" gradientUnits="userSpaceOnUse">
<stop stop-color="#101010"/>
<stop offset="1" stop-color="#313130"/>
</linearGradient>
<linearGradient id="paint3_linear_1672_15588" x1="15.0332" y1="138" x2="3.1341" y2="134.55" gradientUnits="userSpaceOnUse">
<stop stop-color="#101010"/>
<stop offset="1" stop-color="#313130"/>
</linearGradient>
<linearGradient id="paint4_linear_1672_15588" x1="168.033" y1="163" x2="162.084" y2="161.275" gradientUnits="userSpaceOnUse">
<stop stop-color="#101010"/>
<stop offset="1" stop-color="#313130"/>
</linearGradient>
<linearGradient id="paint5_linear_1672_15588" x1="109.033" y1="7" x2="103.084" y2="5.27498" gradientUnits="userSpaceOnUse">
<stop stop-color="#101010"/>
<stop offset="1" stop-color="#313130"/>
</linearGradient>
<linearGradient id="paint6_linear_1672_15588" x1="66.0332" y1="180" x2="57.7038" y2="177.585" gradientUnits="userSpaceOnUse">
<stop stop-color="#101010"/>
<stop offset="1" stop-color="#313130"/>
</linearGradient>
<linearGradient id="paint7_linear_1672_15588" x1="123.033" y1="172" x2="120.653" y2="171.31" gradientUnits="userSpaceOnUse">
<stop stop-color="#101010"/>
<stop offset="1" stop-color="#313130"/>
</linearGradient>
<linearGradient id="paint8_linear_1672_15588" x1="173.033" y1="113" x2="167.084" y2="111.275" gradientUnits="userSpaceOnUse">
<stop stop-color="#101010"/>
<stop offset="1" stop-color="#313130"/>
</linearGradient>
<linearGradient id="paint9_linear_1672_15588" x1="2.0332" y1="76" x2="-0.346617" y2="75.31" gradientUnits="userSpaceOnUse">
<stop stop-color="#101010"/>
<stop offset="1" stop-color="#313130"/>
</linearGradient>
</defs>
</svg>