<svg width="48" height="48" viewBox="0 0 48 48" fill="none" xmlns="http://www.w3.org/2000/svg">
<rect width="48" height="48" rx="24" fill="url(#paint0_linear_1349_27391)"/>
<path fill-rule="evenodd" clip-rule="evenodd" d="M29.5227 19.396V20.9293C31.2451 21.467 32.5 23.0261 32.5 24.8884V29.8253C32.5 32.1308 30.5886 34 28.2322 34H19.7688C17.4114 34 15.5 32.1308 15.5 29.8253V24.8884C15.5 23.0261 16.7559 21.467 18.4773 20.9293V19.396C18.4874 16.4148 20.9567 14 23.9848 14C27.0535 14 29.5227 16.4148 29.5227 19.396ZM24.0051 15.739C26.0678 15.739 27.7445 17.3787 27.7445 19.396V20.7137H20.2555V19.3761C20.2657 17.3688 21.9423 15.739 24.0051 15.739ZM24.8891 28.4549C24.8891 28.9419 24.4928 29.3294 23.9949 29.3294C23.5072 29.3294 23.1109 28.9419 23.1109 28.4549V26.2488C23.1109 25.7718 23.5072 25.3843 23.9949 25.3843C24.4928 25.3843 24.8891 25.7718 24.8891 26.2488V28.4549Z" fill="white"/>
<defs>
<linearGradient id="paint0_linear_1349_27391" x1="48" y1="48" x2="-9.11569" y2="31.4398" gradientUnits="userSpaceOnUse">
<stop stop-color="#335EF7"/>
<stop offset="1" stop-color="#5F82FF"/>
</linearGradient>
</defs>
</svg>
