<svg width="28" height="29" viewBox="0 0 28 29" fill="none" xmlns="http://www.w3.org/2000/svg">
<path d="M19.6465 7.36441C20.0895 7.36441 20.4556 7.69359 20.5135 8.12068L20.5215 8.23941V24.1268C20.5215 24.6101 20.1297 25.0018 19.6465 25.0018C19.2035 25.0018 18.8374 24.6726 18.7795 24.2456L18.7715 24.1268V8.23941C18.7715 7.75616 19.1632 7.36441 19.6465 7.36441Z" fill="#607D8A"/>
<path d="M23.7833 18.7307C24.1243 18.3882 24.6783 18.387 25.0208 18.7279C25.3321 19.0378 25.3615 19.5238 25.1081 19.867L25.0236 19.9653L20.2662 24.7448C19.9553 25.0571 19.4673 25.0855 19.1242 24.8299L19.0259 24.7448L14.2685 19.9653C13.9276 19.6228 13.9289 19.0688 14.2714 18.7279C14.5827 18.418 15.0689 18.3908 15.4109 18.6458L15.5088 18.7307L19.6456 22.8864L23.7833 18.7307Z" fill="#607D8A"/>
<path d="M8.06445 4.19858C8.50743 4.19858 8.87353 4.52776 8.93147 4.95485L8.93945 5.07358V20.961C8.93945 21.4442 8.5477 21.836 8.06445 21.836C7.62147 21.836 7.25538 21.5068 7.19744 21.0797L7.18945 20.961V5.07358C7.18945 4.59033 7.5812 4.19858 8.06445 4.19858Z" fill="#607D8A"/>
<path d="M7.4439 4.45565C7.75484 4.14327 8.2428 4.11487 8.58592 4.37046L8.6842 4.45565L13.4416 9.23509C13.7825 9.57759 13.7812 10.1316 13.4387 10.4725C13.1274 10.7825 12.6412 10.8096 12.2993 10.5546L12.2013 10.4697L8.06379 6.31271L3.92679 10.4697C3.61686 10.781 3.13082 10.8104 2.78769 10.557L2.68935 10.4725C2.37799 10.1626 2.34863 9.67656 2.602 9.33343L2.68649 9.23509L7.4439 4.45565Z" fill="#607D8A"/>
</svg>
