<svg width="100" height="100" viewBox="0 0 100 100" fill="none" xmlns="http://www.w3.org/2000/svg">
<rect width="100" height="100" rx="50" fill="url(#paint0_linear_1435_18797)"/>
<path fill-rule="evenodd" clip-rule="evenodd" d="M43.4508 33.4998C44.2208 33.4998 44.846 34.1128 44.846 34.8697C44.846 35.6247 44.2227 36.2378 43.4508 36.2378L40.4643 36.2396C37.9857 36.2431 35.969 38.2225 35.969 40.6549V44.0634C35.969 44.8185 35.342 45.4333 34.572 45.4333C33.802 45.4333 33.1768 44.8185 33.1768 44.0634V40.6549C33.1768 36.7142 36.4457 33.5051 40.4625 33.5016L43.449 33.4998H43.4508ZM56.6006 33.5004H59.5211C63.5489 33.5004 66.8233 36.7112 66.8233 40.6609V44.064C66.8233 44.8191 66.1999 45.4339 65.4281 45.4339C64.6581 45.4339 64.0329 44.8191 64.0329 44.064V40.6609C64.0329 38.2213 62.0089 36.2366 59.5211 36.2366H56.6006C55.8306 36.2366 55.2054 35.6253 55.2054 34.8703C55.2054 34.1134 55.8306 33.5004 56.6006 33.5004ZM55.0643 40.3612H44.937C42.6197 40.3846 40.757 42.2417 40.7772 44.5159V46.799C40.7827 47.0651 41.0008 47.2826 41.2722 47.2916H58.7255C58.9987 47.2844 59.2168 47.0669 59.226 46.799V44.5159C59.2278 43.4174 58.7952 42.3621 58.0142 41.5765C57.2387 40.7981 56.1735 40.3612 55.0643 40.3612ZM31.23 50.0753H68.7712C69.5412 50.0753 70.1663 50.6884 70.1663 51.4452C70.1663 52.2003 69.5412 52.8115 68.7712 52.8115H66.8242V59.3374C66.8242 63.2889 63.548 66.4997 59.522 66.4997H56.6015C55.8297 66.4997 55.2045 65.8867 55.2045 65.1298C55.2045 64.3748 55.8297 63.7617 56.6015 63.7617H59.522C62.0098 63.7617 64.0338 61.7788 64.0338 59.3374V52.8115H59.225V54.6291C59.2433 56.9032 57.3825 58.7621 55.0633 58.7837H44.936C42.6187 58.7621 40.7578 56.9032 40.7762 54.6291V52.8115H35.9673V59.3446C35.9673 61.777 37.9858 63.7563 40.4663 63.7599L43.451 63.7617C44.221 63.7617 44.8462 64.3748 44.8462 65.1298C44.8443 65.8867 44.221 66.4997 43.4492 66.4997L40.4627 66.4979C36.4458 66.4943 33.1752 63.2853 33.1752 59.3446V52.8115H31.23C30.46 52.8115 29.833 52.2003 29.833 51.4452C29.833 50.6884 30.46 50.0753 31.23 50.0753Z" fill="white"/>
<defs>
<linearGradient id="paint0_linear_1435_18797" x1="100" y1="100" x2="-18.991" y2="65.4996" gradientUnits="userSpaceOnUse">
<stop stop-color="#584CF4"/>
<stop offset="1" stop-color="#7369F8"/>
</linearGradient>
</defs>
</svg>