<svg width="80" height="80" viewBox="0 0 80 80" fill="none" xmlns="http://www.w3.org/2000/svg">
<rect width="80" height="80" rx="40" fill="#9610FF" fill-opacity="0.08"/>
<path fill-rule="evenodd" clip-rule="evenodd" d="M26.666 40.02C26.666 32.9961 32.2793 26.6666 40.026 26.6666C47.5993 26.6666 53.3327 32.8759 53.3327 39.9799C53.3327 48.219 46.6127 53.3333 39.9993 53.3333C37.8127 53.3333 35.386 52.7457 33.4393 51.5974C32.7593 51.1834 32.186 50.8763 31.4527 51.1166L28.7593 51.9178C28.0793 52.1315 27.466 51.5974 27.666 50.8763L28.5593 47.8851C28.706 47.4712 28.6793 47.0305 28.466 46.6833C27.3193 44.5735 26.666 42.2634 26.666 40.02ZM38.266 40.02C38.266 40.9681 39.026 41.7292 39.9727 41.7426C40.9193 41.7426 41.6793 40.9681 41.6793 40.0333C41.6793 39.0853 40.9193 38.3241 39.9727 38.3241C39.0393 38.3108 38.266 39.0853 38.266 40.02ZM44.4127 40.0333C44.4127 40.9681 45.1727 41.7426 46.1193 41.7426C47.066 41.7426 47.826 40.9681 47.826 40.0333C47.826 39.0853 47.066 38.3241 46.1193 38.3241C45.1727 38.3241 44.4127 39.0853 44.4127 40.0333ZM33.826 41.7426C32.8927 41.7426 32.1193 40.9681 32.1193 40.0333C32.1193 39.0853 32.8793 38.3241 33.826 38.3241C34.7727 38.3241 35.5327 39.0853 35.5327 40.0333C35.5327 40.9681 34.7727 41.7292 33.826 41.7426Z" fill="url(#paint0_linear_1352_20813)"/>
<defs>
<linearGradient id="paint0_linear_1352_20813" x1="53.3327" y1="53.3333" x2="21.6017" y2="44.1332" gradientUnits="userSpaceOnUse">
<stop stop-color="#9610FF"/>
<stop offset="1" stop-color="#AF48FF"/>
</linearGradient>
</defs>
</svg>
