<svg width="80" height="81" viewBox="0 0 80 81" fill="none" xmlns="http://www.w3.org/2000/svg">
<rect y="0.666626" width="80" height="80" rx="40" fill="#35383F"/>
<path fill-rule="evenodd" clip-rule="evenodd" d="M26.666 40.6866C26.666 33.6627 32.2793 27.3333 40.026 27.3333C47.5993 27.3333 53.3327 33.5426 53.3327 40.6466C53.3327 48.8856 46.6127 53.9999 39.9993 53.9999C37.8127 53.9999 35.386 53.4124 33.4393 52.264C32.7593 51.85 32.186 51.5429 31.4527 51.7833L28.7593 52.5845C28.0793 52.7981 27.466 52.264 27.666 51.5429L28.5593 48.5517C28.706 48.1378 28.6793 47.6971 28.466 47.3499C27.3193 45.2401 26.666 42.93 26.666 40.6866ZM38.266 40.6866C38.266 41.6347 39.026 42.3958 39.9727 42.4092C40.9193 42.4092 41.6793 41.6347 41.6793 40.7C41.6793 39.7519 40.9193 38.9907 39.9727 38.9907C39.0393 38.9774 38.266 39.7519 38.266 40.6866ZM44.4127 40.7C44.4127 41.6347 45.1727 42.4092 46.1193 42.4092C47.066 42.4092 47.826 41.6347 47.826 40.7C47.826 39.7519 47.066 38.9907 46.1193 38.9907C45.1727 38.9907 44.4127 39.7519 44.4127 40.7ZM33.826 42.4092C32.8927 42.4092 32.1193 41.6347 32.1193 40.7C32.1193 39.7519 32.8793 38.9907 33.826 38.9907C34.7727 38.9907 35.5327 39.7519 35.5327 40.7C35.5327 41.6347 34.7727 42.3958 33.826 42.4092Z" fill="white"/>
</svg>
