<svg width="28" height="29" viewBox="0 0 28 29" fill="none" xmlns="http://www.w3.org/2000/svg">
<path d="M20.9041 17.3086C20.6019 17.6015 20.4631 18.025 20.5319 18.4403L21.5691 24.1803C21.6566 24.6668 21.4512 25.1591 21.0441 25.4403C20.6451 25.732 20.1142 25.767 19.6791 25.5336L14.5119 22.8386C14.3322 22.743 14.1327 22.6916 13.9286 22.6858H13.6124C13.5027 22.7021 13.3954 22.7371 13.2974 22.7908L8.12905 25.4986C7.87355 25.627 7.58422 25.6725 7.30072 25.627C6.61005 25.4963 6.14922 24.8383 6.26239 24.1441L7.30072 18.4041C7.36955 17.9853 7.23072 17.5595 6.92855 17.262L2.71572 13.1786C2.36339 12.8368 2.24089 12.3235 2.40189 11.8603C2.55822 11.3983 2.95722 11.0611 3.43905 10.9853L9.23739 10.1441C9.67839 10.0986 10.0657 9.83031 10.2641 9.43365L12.8191 4.19531C12.8797 4.07865 12.9579 3.97131 13.0524 3.88031L13.1574 3.79865C13.2122 3.73798 13.2752 3.68781 13.3452 3.64698L13.4724 3.60031L13.6707 3.51865H14.1619C14.6006 3.56415 14.9867 3.82665 15.1886 4.21865L17.7774 9.43365C17.9641 9.81515 18.3269 10.08 18.7457 10.1441L24.5441 10.9853C25.0341 11.0553 25.4436 11.3936 25.6057 11.8603C25.7586 12.3281 25.6267 12.8415 25.2674 13.1786L20.9041 17.3086Z" fill="url(#paint0_linear_1761_10369)"/>
<defs>
<linearGradient id="paint0_linear_1761_10369" x1="25.6684" y1="25.6868" x2="-1.86879" y2="17.2819" gradientUnits="userSpaceOnUse">
<stop stop-color="#FACC15"/>
<stop offset="1" stop-color="#FFE580"/>
</linearGradient>
</defs>
</svg>
