<svg width="26" height="26" viewBox="0 0 26 26" fill="none" xmlns="http://www.w3.org/2000/svg">
<path fill-rule="evenodd" clip-rule="evenodd" d="M0.634636 12.7569C0.634636 5.82261 6.26763 0.200195 13.2169 0.200195C20.1643 0.200195 25.7992 5.82261 25.7992 12.7569C25.7992 19.6922 20.1653 25.3146 13.2169 25.3146C11.6275 25.3167 10.0542 25.0171 8.58041 24.4341C8.17676 24.2744 7.73201 24.2371 7.3155 24.3593L2.68361 25.7184C1.18439 26.1599 -0.192891 24.735 0.30169 23.255L1.70729 19.0469C1.85835 18.5947 1.81805 18.1034 1.6313 17.6647C0.989243 16.1563 0.634636 14.4974 0.634636 12.7569ZM15.6876 7.92841C16.0845 7.92841 16.4809 7.98429 16.8577 8.11051C19.1797 8.86402 20.0165 11.4071 19.3175 13.63C18.9212 14.7659 18.2732 15.8026 17.4245 16.6497C16.2097 17.8239 14.8766 18.8662 13.4417 19.7642L13.2844 19.859L13.1208 19.7579C11.6808 18.8662 10.3401 17.8239 9.11402 16.6434C8.27101 15.7963 7.6224 14.7659 7.21977 13.63C6.50888 11.4071 7.3456 8.86402 9.6928 8.09732C9.87524 8.03453 10.0633 7.99057 10.2521 7.96608H10.3276C10.5043 7.94034 10.6799 7.92841 10.856 7.92841H10.9252C11.3216 7.94034 11.7053 8.00941 12.0771 8.13562H12.1142C12.1394 8.14755 12.1583 8.16074 12.1709 8.17267C12.3099 8.21725 12.4414 8.26749 12.5672 8.33656L12.8063 8.44331C12.864 8.47406 12.9289 8.52104 12.9849 8.56165C13.0204 8.58738 13.0524 8.61055 13.0768 8.6254C13.087 8.63145 13.0975 8.63753 13.108 8.64366C13.1619 8.67509 13.2181 8.70782 13.2655 8.74408C13.9644 8.21097 14.8131 7.92213 15.6876 7.92841Z" fill="url(#paint0_linear_1672_10989)"/>
<defs>
<linearGradient id="paint0_linear_1672_10989" x1="25.7992" y1="25.8" x2="-4.66245" y2="16.9679" gradientUnits="userSpaceOnUse">
<stop stop-color="#9610FF"/>
<stop offset="1" stop-color="#AF48FF"/>
</linearGradient>
</defs>
</svg>
