<svg width="60" height="60" viewBox="0 0 60 60" fill="none" xmlns="http://www.w3.org/2000/svg">
<rect width="60" height="60" rx="30" fill="#FF9800" fill-opacity="0.08"/>
<path fill-rule="evenodd" clip-rule="evenodd" d="M39.0551 30.0012C39.0551 30.9502 39.8345 31.7224 40.7923 31.7224C41.2753 31.7224 41.6673 32.1109 41.6673 32.5895V35.7118C41.6673 38.3521 39.4996 40.5 36.835 40.5H23.1675C20.5028 40.5 18.334 38.3521 18.334 35.7118V32.5895C18.334 32.1109 18.726 31.7224 19.209 31.7224C20.168 31.7224 20.9473 30.9502 20.9473 30.0012C20.9473 29.0764 20.1995 28.3804 19.209 28.3804C18.9768 28.3804 18.7552 28.2891 18.5907 28.1261C18.4262 27.9631 18.334 27.7423 18.334 27.5134L18.3363 24.2893C18.3363 21.649 20.504 19.5 23.1687 19.5H36.8327C39.4973 19.5 41.6662 21.649 41.6662 24.2893L41.6673 27.4129C41.6673 27.6417 41.5751 27.8637 41.4118 28.0255C41.2473 28.1885 41.0257 28.2799 40.7923 28.2799C39.8345 28.2799 39.0551 29.0521 39.0551 30.0012ZM32.628 30.756L34.0035 29.4289C34.2427 29.2 34.3255 28.8625 34.2217 28.5504C34.119 28.2382 33.8507 28.0163 33.5263 27.9712L31.6258 27.6961L30.7753 25.9898C30.6295 25.6962 30.3332 25.5135 30.003 25.5124H30.0007C29.6717 25.5124 29.3753 25.695 29.2272 25.9887L28.3767 27.6961L26.4797 27.9701C26.1518 28.0163 25.8835 28.2382 25.7797 28.5504C25.677 28.8625 25.7598 29.2 25.9978 29.4289L27.3733 30.756L27.049 32.6322C26.993 32.9559 27.1248 33.2773 27.3932 33.4703C27.5448 33.5778 27.721 33.6333 27.8995 33.6333C28.036 33.6333 28.1737 33.5998 28.2997 33.5339L30.0007 32.6484L31.6982 33.5316C31.9922 33.6877 32.341 33.6634 32.6082 33.4692C32.8777 33.2773 33.0095 32.9559 32.9535 32.6322L32.628 30.756Z" fill="url(#paint0_linear_1455_31445)"/>
<defs>
<linearGradient id="paint0_linear_1455_31445" x1="41.6673" y1="40.5" x2="14.3988" y2="31.7153" gradientUnits="userSpaceOnUse">
<stop stop-color="#FB9400"/>
<stop offset="1" stop-color="#FFAB38"/>
</linearGradient>
</defs>
</svg>