<svg width="21" height="20" viewBox="0 0 21 20" fill="none" xmlns="http://www.w3.org/2000/svg">
<path fill-rule="evenodd" clip-rule="evenodd" d="M0.601562 10.015C0.601562 4.74712 4.81156 0 10.6216 0C16.3016 0 20.6016 4.65699 20.6016 9.98498C20.6016 16.1642 15.5616 20 10.6016 20C8.96156 20 7.14156 19.5593 5.68156 18.698C5.17156 18.3876 4.74156 18.1572 4.19156 18.3375L2.17156 18.9384C1.66156 19.0986 1.20156 18.698 1.35156 18.1572L2.02156 15.9139C2.13156 15.6034 2.11156 15.2729 1.95156 15.0125C1.09156 13.4301 0.601562 11.6975 0.601562 10.015ZM9.30156 10.015C9.30156 10.7261 9.87156 11.2969 10.5816 11.307C11.2916 11.307 11.8616 10.7261 11.8616 10.025C11.8616 9.31397 11.2916 8.74311 10.5816 8.74311C9.88156 8.7331 9.30156 9.31397 9.30156 10.015ZM13.9116 10.025C13.9116 10.7261 14.4816 11.307 15.1916 11.307C15.9016 11.307 16.4716 10.7261 16.4716 10.025C16.4716 9.31397 15.9016 8.74311 15.1916 8.74311C14.4816 8.74311 13.9116 9.31397 13.9116 10.025ZM5.97156 11.307C5.27156 11.307 4.69156 10.7261 4.69156 10.025C4.69156 9.31397 5.26156 8.74311 5.97156 8.74311C6.68156 8.74311 7.25156 9.31397 7.25156 10.025C7.25156 10.7261 6.68156 11.2969 5.97156 11.307Z" fill="#9610FF"/>
</svg>