<svg width="23" height="22" viewBox="0 0 23 22" fill="none" xmlns="http://www.w3.org/2000/svg">
<path fill-rule="evenodd" clip-rule="evenodd" d="M18.6729 18.0699C15.6168 21.1263 11.0913 21.7867 7.38798 20.074C6.84127 19.8539 6.39305 19.676 5.96693 19.676C4.78005 19.683 3.30273 20.8339 2.53492 20.067C1.76712 19.2991 2.91883 17.8206 2.91883 16.6266C2.91883 16.2004 2.74798 15.7602 2.52789 15.2124C0.814393 11.5096 1.47567 6.98269 4.53182 3.92721C8.43316 0.0244319 14.7716 0.0244322 18.6729 3.9262C22.5813 7.83501 22.5743 14.1681 18.6729 18.0699Z" stroke="#9E9E9E" stroke-width="1.5" stroke-linecap="round" stroke-linejoin="round"/>
<path d="M15.5404 11.4131H15.5494" stroke="#9E9E9E" stroke-width="2" stroke-linecap="round" stroke-linejoin="round"/>
<path d="M11.5326 11.4131H11.5416" stroke="#9E9E9E" stroke-width="2" stroke-linecap="round" stroke-linejoin="round"/>
<path d="M7.52284 11.4131H7.53184" stroke="#9E9E9E" stroke-width="2" stroke-linecap="round" stroke-linejoin="round"/>
</svg>