<svg width="20" height="20" viewBox="0 0 20 20" fill="none" xmlns="http://www.w3.org/2000/svg">
<path fill-rule="evenodd" clip-rule="evenodd" d="M6.50833 1.66669H13.4925C16.0667 1.66669 17.5 3.15002 17.5 5.69169V14.3C17.5 16.8834 16.0667 18.3334 13.4925 18.3334H6.50833C3.975 18.3334 2.5 16.8834 2.5 14.3V5.69169C2.5 3.15002 3.975 1.66669 6.50833 1.66669ZM6.73333 5.55002V5.54169H9.22417C9.58333 5.54169 9.875 5.83335 9.875 6.19085C9.875 6.55835 9.58333 6.85002 9.22417 6.85002H6.73333C6.37417 6.85002 6.08333 6.55835 6.08333 6.20002C6.08333 5.84169 6.37417 5.55002 6.73333 5.55002ZM6.73333 10.6167H13.2667C13.625 10.6167 13.9167 10.325 13.9167 9.96669C13.9167 9.60835 13.625 9.31585 13.2667 9.31585H6.73333C6.37417 9.31585 6.08333 9.60835 6.08333 9.96669C6.08333 10.325 6.37417 10.6167 6.73333 10.6167ZM6.73333 14.425H13.2667C13.5992 14.3917 13.85 14.1075 13.85 13.775C13.85 13.4334 13.5992 13.15 13.2667 13.1167H6.73333C6.48333 13.0917 6.24167 13.2084 6.10833 13.425C5.975 13.6334 5.975 13.9084 6.10833 14.125C6.24167 14.3334 6.48333 14.4584 6.73333 14.425Z" fill="#584CF4"/>
</svg>
