<svg width="20" height="20" viewBox="0 0 20 20" fill="none" xmlns="http://www.w3.org/2000/svg">
<path fill-rule="evenodd" clip-rule="evenodd" d="M13.0967 14.1447H7.08008C6.73508 14.1447 6.45508 13.8647 6.45508 13.5197C6.45508 13.1747 6.73508 12.8947 7.08008 12.8947H13.0967C13.4417 12.8947 13.7217 13.1747 13.7217 13.5197C13.7217 13.8647 13.4417 14.1447 13.0967 14.1447" fill="#9E9E9E"/>
<path fill-rule="evenodd" clip-rule="evenodd" d="M13.0967 10.656H7.08008C6.73508 10.656 6.45508 10.376 6.45508 10.031C6.45508 9.68601 6.73508 9.40601 7.08008 9.40601H13.0967C13.4417 9.40601 13.7217 9.68601 13.7217 10.031C13.7217 10.376 13.4417 10.656 13.0967 10.656" fill="#9E9E9E"/>
<path fill-rule="evenodd" clip-rule="evenodd" d="M9.37494 7.17529H7.0791C6.7341 7.17529 6.4541 6.89529 6.4541 6.55029C6.4541 6.20529 6.7341 5.92529 7.0791 5.92529H9.37494C9.71994 5.92529 9.99994 6.20529 9.99994 6.55029C9.99994 6.89529 9.71994 7.17529 9.37494 7.17529" fill="#9E9E9E"/>
<mask id="mask0_1445_20231" style="mask-type:luminance" maskUnits="userSpaceOnUse" x="2" y="1" width="16" height="18">
<path fill-rule="evenodd" clip-rule="evenodd" d="M2.5 1.66681H17.6372V18.2583H2.5V1.66681Z" fill="white"/>
</mask>
<g mask="url(#mask0_1445_20231)">
<path fill-rule="evenodd" clip-rule="evenodd" d="M13.2575 2.91663L6.85 2.91996C4.91 2.93163 3.75 4.13163 3.75 6.13079V13.7941C3.75 15.8066 4.92083 17.0083 6.88 17.0083L13.2875 17.0058C15.2275 16.9941 16.3875 15.7925 16.3875 13.7941V6.13079C16.3875 4.11829 15.2175 2.91663 13.2575 2.91663ZM6.88083 18.2583C4.26083 18.2583 2.5 16.4641 2.5 13.7941V6.13079C2.5 3.43663 4.20583 1.68579 6.84583 1.66996L13.2567 1.66663H13.2575C15.8775 1.66663 17.6375 3.46079 17.6375 6.13079V13.7941C17.6375 16.4875 15.9317 18.2391 13.2917 18.2558L6.88083 18.2583Z" fill="#9E9E9E"/>
</g>
</svg>