<svg width="186" height="180" viewBox="0 0 186 180" fill="none" xmlns="http://www.w3.org/2000/svg">
<circle cx="95.5" cy="90.5" r="70.5" fill="url(#paint0_linear_1702_17195)"/>
<circle cx="178.467" cy="27.5" r="7.5" fill="#9B94F8"/>
<circle cx="20.0332" cy="10" r="10" fill="#9B94F8"/>
<circle cx="10.0332" cy="133" r="5" fill="#9B94F8"/>
<circle cx="165.533" cy="160.5" r="2.5" fill="#9B94F8"/>
<path fill-rule="evenodd" clip-rule="evenodd" d="M84.8548 65.9165H106.169C114.502 65.9165 120.083 71.7673 120.083 80.4698V100.557C120.083 109.232 114.502 115.083 106.169 115.083H84.8548C76.521 115.083 70.916 109.232 70.916 100.557V80.4698C70.916 71.7673 76.521 65.9165 84.8548 65.9165ZM94.0981 97.8503L105.775 86.1732C106.611 85.3373 106.611 83.9853 105.775 83.1248C104.939 82.289 103.563 82.289 102.727 83.1248L92.5739 93.2778L88.2719 88.9757C87.436 88.1398 86.0594 88.1398 85.2235 88.9757C84.3877 89.8115 84.3877 91.1636 85.2235 92.024L91.0744 97.8503C91.4923 98.2682 92.0331 98.4648 92.5739 98.4648C93.1393 98.4648 93.6802 98.2682 94.0981 97.8503Z" fill="white"/>
<circle cx="106.533" cy="4.5" r="2.5" fill="#9B94F8"/>
<circle cx="62.5332" cy="176.5" r="3.5" fill="#9B94F8"/>
<circle cx="122.033" cy="171" r="1" fill="#9B94F8"/>
<circle cx="170.533" cy="110.5" r="2.5" fill="#9B94F8"/>
<circle cx="1.0332" cy="75" r="1" fill="#9B94F8"/>
<defs>
<linearGradient id="paint0_linear_1702_17195" x1="166" y1="161" x2="-1.77734" y2="112.355" gradientUnits="userSpaceOnUse">
<stop stop-color="#584CF4"/>
<stop offset="1" stop-color="#7369F8"/>
</linearGradient>
</defs>
</svg>