<svg width="21" height="18" viewBox="0 0 21 18" fill="none" xmlns="http://www.w3.org/2000/svg">
<path fill-rule="evenodd" clip-rule="evenodd" d="M16.3685 5.3818H20.5996C20.5996 1.98459 18.5641 0 15.1152 0H6.08405C2.63517 0 0.599609 1.98459 0.599609 5.33847V12.6615C0.599609 16.0154 2.63517 18 6.08405 18H15.1152C18.5641 18 20.5996 16.0154 20.5996 12.6615V12.3495H16.3685C14.4048 12.3495 12.8129 10.7975 12.8129 8.883C12.8129 6.96849 14.4048 5.41647 16.3685 5.41647V5.3818ZM16.3685 6.87241H19.8529C20.2653 6.87241 20.5996 7.19834 20.5996 7.60039V10.131C20.5948 10.5311 20.2633 10.8543 19.8529 10.8589H16.4485C15.4544 10.872 14.5851 10.2084 14.3596 9.26432C14.2467 8.67829 14.4052 8.07357 14.7927 7.61222C15.1802 7.15087 15.757 6.88007 16.3685 6.87241ZM16.5196 9.53298H16.8485C17.2707 9.53298 17.6129 9.1993 17.6129 8.78767C17.6129 8.37605 17.2707 8.04237 16.8485 8.04237H16.5196C16.3177 8.04005 16.1232 8.11664 15.9796 8.25504C15.836 8.39344 15.7552 8.58213 15.7552 8.77901C15.7551 9.19205 16.096 9.52823 16.5196 9.53298ZM5.33739 5.3818H10.9818C11.404 5.3818 11.7463 5.04812 11.7463 4.63649C11.7463 4.22487 11.404 3.89119 10.9818 3.89119H5.33739C4.91864 3.89116 4.57781 4.2196 4.57294 4.62783C4.57291 5.04087 4.91376 5.37705 5.33739 5.3818Z" fill="#212121"/>
</svg>
