<svg width="60" height="60" viewBox="0 0 60 60" fill="none" xmlns="http://www.w3.org/2000/svg">
<rect width="60" height="60" rx="30" fill="#246BFD" fill-opacity="0.08"/>
<path fill-rule="evenodd" clip-rule="evenodd" d="M36.731 25.7788H41.6673C41.6673 21.8154 39.2925 19.5 35.2688 19.5H24.7325C20.7088 19.5 18.334 21.8154 18.334 25.7282V34.2718C18.334 38.1846 20.7088 40.5 24.7325 40.5H35.2688C39.2925 40.5 41.6673 38.1846 41.6673 34.2718V33.9078H36.731C34.4401 33.9078 32.5829 32.0971 32.5829 29.8635C32.5829 27.6299 34.4401 25.8192 36.731 25.8192V25.7788ZM36.731 27.5178H40.7962C41.2773 27.5178 41.6673 27.8981 41.6673 28.3671V31.3195C41.6617 31.7862 41.275 32.1633 40.7962 32.1688H36.8244C35.6646 32.184 34.6504 31.4098 34.3873 30.3084C34.2556 29.6247 34.4405 28.9192 34.8926 28.3809C35.3446 27.8427 36.0176 27.5268 36.731 27.5178ZM36.9073 30.6218H37.291C37.7836 30.6218 38.1829 30.2325 38.1829 29.7523C38.1829 29.2721 37.7836 28.8828 37.291 28.8828H36.9073C36.6717 28.8801 36.4449 28.9694 36.2773 29.1309C36.1097 29.2923 36.0154 29.5125 36.0155 29.7422C36.0154 30.2241 36.4131 30.6163 36.9073 30.6218ZM23.8614 25.7788H30.4466C30.9391 25.7788 31.3384 25.3895 31.3384 24.9092C31.3384 24.429 30.9391 24.0397 30.4466 24.0397H23.8614C23.3729 24.0397 22.9752 24.4229 22.9695 24.8991C22.9695 25.381 23.3672 25.7732 23.8614 25.7788Z" fill="url(#paint0_linear_1455_31457)"/>
<defs>
<linearGradient id="paint0_linear_1455_31457" x1="41.6673" y1="40.5" x2="14.3988" y2="31.7153" gradientUnits="userSpaceOnUse">
<stop stop-color="#246BFD"/>
<stop offset="1" stop-color="#5089FF"/>
</linearGradient>
</defs>
</svg>