<svg width="186" height="180" viewBox="0 0 186 180" fill="none" xmlns="http://www.w3.org/2000/svg">
<circle cx="95.5" cy="90.5" r="70.5" fill="url(#paint0_linear_1702_8176)"/>
<circle cx="178.467" cy="27.5" r="7.5" fill="#9B94F8"/>
<circle cx="20.0332" cy="10" r="10" fill="#9B94F8"/>
<circle cx="10.0332" cy="133" r="5" fill="#9B94F8"/>
<circle cx="165.533" cy="160.5" r="2.5" fill="#9B94F8"/>
<path fill-rule="evenodd" clip-rule="evenodd" d="M84.8557 65.9165H106.169C114.503 65.9165 120.084 71.7673 120.084 80.4698V100.557C120.084 109.232 114.503 115.083 106.169 115.083H84.8557C76.522 115.083 70.917 109.232 70.917 100.557V80.4698C70.917 71.7673 76.522 65.9165 84.8557 65.9165ZM94.0991 97.8503L105.776 86.1732C106.612 85.3373 106.612 83.9853 105.776 83.1248C104.94 82.289 103.564 82.289 102.728 83.1248L92.5749 93.2778L88.2728 88.9757C87.437 88.1398 86.0603 88.1398 85.2245 88.9757C84.3887 89.8115 84.3887 91.1636 85.2245 92.024L91.0753 97.8503C91.4932 98.2682 92.0341 98.4648 92.5749 98.4648C93.1403 98.4648 93.6812 98.2682 94.0991 97.8503Z" fill="white"/>
<circle cx="106.533" cy="4.5" r="2.5" fill="#9B94F8"/>
<circle cx="62.5332" cy="176.5" r="3.5" fill="#9B94F8"/>
<circle cx="122.033" cy="171" r="1" fill="#9B94F8"/>
<circle cx="170.533" cy="110.5" r="2.5" fill="#9B94F8"/>
<circle cx="1.0332" cy="75" r="1" fill="#9B94F8"/>
<defs>
<linearGradient id="paint0_linear_1702_8176" x1="166" y1="161" x2="-1.77734" y2="112.355" gradientUnits="userSpaceOnUse">
<stop stop-color="#584CF4"/>
<stop offset="1" stop-color="#7369F8"/>
</linearGradient>
</defs>
</svg>
